<?xml version="1.0" encoding="utf-8" standalone="no"?>
<!DOCTYPE svg PUBLIC "-//W3C//DTD SVG 1.1//EN"
  "http://www.w3.org/Graphics/SVG/1.1/DTD/svg11.dtd">
<svg xmlns:xlink="http://www.w3.org/1999/xlink" width="1138.351562pt" height="374.515pt" viewBox="0 0 1138.351562 374.515" xmlns="http://www.w3.org/2000/svg" version="1.1">
 <metadata>
  <rdf:RDF xmlns:dc="http://purl.org/dc/elements/1.1/" xmlns:cc="http://creativecommons.org/ns#" xmlns:rdf="http://www.w3.org/1999/02/22-rdf-syntax-ns#">
   <cc:Work>
    <dc:type rdf:resource="http://purl.org/dc/dcmitype/StillImage"/>
    <dc:date>2025-10-03T21:51:53.949929</dc:date>
    <dc:format>image/svg+xml</dc:format>
    <dc:creator>
     <cc:Agent>
      <dc:title>Matplotlib v3.10.5, https://matplotlib.org/</dc:title>
     </cc:Agent>
    </dc:creator>
   </cc:Work>
  </rdf:RDF>
 </metadata>
 <defs>
  <style type="text/css">*{stroke-linejoin: round; stroke-linecap: butt}</style>
 </defs>
 <g id="figure_1">
  <g id="patch_1">
   <path d="M 0 374.515 
L 1138.351562 374.515 
L 1138.351562 0 
L 0 0 
z
" style="fill: #ffffff"/>
  </g>
  <g id="axes_1">
   <g id="patch_2">
    <path d="M 7.2 326.151875 
L 335.435294 326.151875 
L 335.435294 48.951875 
L 7.2 48.951875 
z
" style="fill: #ffffff"/>
   </g>
   <g id="matplotlib.axis_1">
    <g id="xtick_1">
     <g id="line2d_1">
      <defs>
       <path id="m67db13d0a9" d="M 0 0 
L 0 3.5 
" style="stroke: #000000; stroke-width: 0.8"/>
      </defs>
      <g>
       <use xlink:href="#m67db13d0a9" x="22.119786" y="326.151875" style="stroke: #000000; stroke-width: 0.8"/>
      </g>
     </g>
     <g id="text_1">
      <!-- 0 -->
      <g transform="translate(18.938536 340.750312) scale(0.1 -0.1)">
       <defs>
        <path id="DejaVuSans-30" d="M 2034 4250 
Q 1547 4250 1301 3770 
Q 1056 3291 1056 2328 
Q 1056 1369 1301 889 
Q 1547 409 2034 409 
Q 2525 409 2770 889 
Q 3016 1369 3016 2328 
Q 3016 3291 2770 3770 
Q 2525 4250 2034 4250 
z
M 2034 4750 
Q 2819 4750 3233 4129 
Q 3647 3509 3647 2328 
Q 3647 1150 3233 529 
Q 2819 -91 2034 -91 
Q 1250 -91 836 529 
Q 422 1150 422 2328 
Q 422 3509 836 4129 
Q 1250 4750 2034 4750 
z
" transform="scale(0.015625)"/>
       </defs>
       <use xlink:href="#DejaVuSans-30"/>
      </g>
     </g>
    </g>
    <g id="xtick_2">
     <g id="line2d_2">
      <g>
       <use xlink:href="#m67db13d0a9" x="64.747746" y="326.151875" style="stroke: #000000; stroke-width: 0.8"/>
      </g>
     </g>
     <g id="text_2">
      <!-- 8 -->
      <g transform="translate(61.566496 340.750312) scale(0.1 -0.1)">
       <defs>
        <path id="DejaVuSans-38" d="M 2034 2216 
Q 1584 2216 1326 1975 
Q 1069 1734 1069 1313 
Q 1069 891 1326 650 
Q 1584 409 2034 409 
Q 2484 409 2743 651 
Q 3003 894 3003 1313 
Q 3003 1734 2745 1975 
Q 2488 2216 2034 2216 
z
M 1403 2484 
Q 997 2584 770 2862 
Q 544 3141 544 3541 
Q 544 4100 942 4425 
Q 1341 4750 2034 4750 
Q 2731 4750 3128 4425 
Q 3525 4100 3525 3541 
Q 3525 3141 3298 2862 
Q 3072 2584 2669 2484 
Q 3125 2378 3379 2068 
Q 3634 1759 3634 1313 
Q 3634 634 3220 271 
Q 2806 -91 2034 -91 
Q 1263 -91 848 271 
Q 434 634 434 1313 
Q 434 1759 690 2068 
Q 947 2378 1403 2484 
z
M 1172 3481 
Q 1172 3119 1398 2916 
Q 1625 2713 2034 2713 
Q 2441 2713 2670 2916 
Q 2900 3119 2900 3481 
Q 2900 3844 2670 4047 
Q 2441 4250 2034 4250 
Q 1625 4250 1398 4047 
Q 1172 3844 1172 3481 
z
" transform="scale(0.015625)"/>
       </defs>
       <use xlink:href="#DejaVuSans-38"/>
      </g>
     </g>
    </g>
    <g id="xtick_3">
     <g id="line2d_3">
      <g>
       <use xlink:href="#m67db13d0a9" x="107.375707" y="326.151875" style="stroke: #000000; stroke-width: 0.8"/>
      </g>
     </g>
     <g id="text_3">
      <!-- 16 -->
      <g transform="translate(101.013207 340.750312) scale(0.1 -0.1)">
       <defs>
        <path id="DejaVuSans-31" d="M 794 531 
L 1825 531 
L 1825 4091 
L 703 3866 
L 703 4441 
L 1819 4666 
L 2450 4666 
L 2450 531 
L 3481 531 
L 3481 0 
L 794 0 
L 794 531 
z
" transform="scale(0.015625)"/>
        <path id="DejaVuSans-36" d="M 2113 2584 
Q 1688 2584 1439 2293 
Q 1191 2003 1191 1497 
Q 1191 994 1439 701 
Q 1688 409 2113 409 
Q 2538 409 2786 701 
Q 3034 994 3034 1497 
Q 3034 2003 2786 2293 
Q 2538 2584 2113 2584 
z
M 3366 4563 
L 3366 3988 
Q 3128 4100 2886 4159 
Q 2644 4219 2406 4219 
Q 1781 4219 1451 3797 
Q 1122 3375 1075 2522 
Q 1259 2794 1537 2939 
Q 1816 3084 2150 3084 
Q 2853 3084 3261 2657 
Q 3669 2231 3669 1497 
Q 3669 778 3244 343 
Q 2819 -91 2113 -91 
Q 1303 -91 875 529 
Q 447 1150 447 2328 
Q 447 3434 972 4092 
Q 1497 4750 2381 4750 
Q 2619 4750 2861 4703 
Q 3103 4656 3366 4563 
z
" transform="scale(0.015625)"/>
       </defs>
       <use xlink:href="#DejaVuSans-31"/>
       <use xlink:href="#DejaVuSans-36" transform="translate(63.623047 0)"/>
      </g>
     </g>
    </g>
    <g id="xtick_4">
     <g id="line2d_4">
      <g>
       <use xlink:href="#m67db13d0a9" x="150.003667" y="326.151875" style="stroke: #000000; stroke-width: 0.8"/>
      </g>
     </g>
     <g id="text_4">
      <!-- 24 -->
      <g transform="translate(143.641167 340.750312) scale(0.1 -0.1)">
       <defs>
        <path id="DejaVuSans-32" d="M 1228 531 
L 3431 531 
L 3431 0 
L 469 0 
L 469 531 
Q 828 903 1448 1529 
Q 2069 2156 2228 2338 
Q 2531 2678 2651 2914 
Q 2772 3150 2772 3378 
Q 2772 3750 2511 3984 
Q 2250 4219 1831 4219 
Q 1534 4219 1204 4116 
Q 875 4013 500 3803 
L 500 4441 
Q 881 4594 1212 4672 
Q 1544 4750 1819 4750 
Q 2544 4750 2975 4387 
Q 3406 4025 3406 3419 
Q 3406 3131 3298 2873 
Q 3191 2616 2906 2266 
Q 2828 2175 2409 1742 
Q 1991 1309 1228 531 
z
" transform="scale(0.015625)"/>
        <path id="DejaVuSans-34" d="M 2419 4116 
L 825 1625 
L 2419 1625 
L 2419 4116 
z
M 2253 4666 
L 3047 4666 
L 3047 1625 
L 3713 1625 
L 3713 1100 
L 3047 1100 
L 3047 0 
L 2419 0 
L 2419 1100 
L 313 1100 
L 313 1709 
L 2253 4666 
z
" transform="scale(0.015625)"/>
       </defs>
       <use xlink:href="#DejaVuSans-32"/>
       <use xlink:href="#DejaVuSans-34" transform="translate(63.623047 0)"/>
      </g>
     </g>
    </g>
    <g id="xtick_5">
     <g id="line2d_5">
      <g>
       <use xlink:href="#m67db13d0a9" x="192.631627" y="326.151875" style="stroke: #000000; stroke-width: 0.8"/>
      </g>
     </g>
     <g id="text_5">
      <!-- 32 -->
      <g transform="translate(186.269127 340.750312) scale(0.1 -0.1)">
       <defs>
        <path id="DejaVuSans-33" d="M 2597 2516 
Q 3050 2419 3304 2112 
Q 3559 1806 3559 1356 
Q 3559 666 3084 287 
Q 2609 -91 1734 -91 
Q 1441 -91 1130 -33 
Q 819 25 488 141 
L 488 750 
Q 750 597 1062 519 
Q 1375 441 1716 441 
Q 2309 441 2620 675 
Q 2931 909 2931 1356 
Q 2931 1769 2642 2001 
Q 2353 2234 1838 2234 
L 1294 2234 
L 1294 2753 
L 1863 2753 
Q 2328 2753 2575 2939 
Q 2822 3125 2822 3475 
Q 2822 3834 2567 4026 
Q 2313 4219 1838 4219 
Q 1578 4219 1281 4162 
Q 984 4106 628 3988 
L 628 4550 
Q 988 4650 1302 4700 
Q 1616 4750 1894 4750 
Q 2613 4750 3031 4423 
Q 3450 4097 3450 3541 
Q 3450 3153 3228 2886 
Q 3006 2619 2597 2516 
z
" transform="scale(0.015625)"/>
       </defs>
       <use xlink:href="#DejaVuSans-33"/>
       <use xlink:href="#DejaVuSans-32" transform="translate(63.623047 0)"/>
      </g>
     </g>
    </g>
    <g id="xtick_6">
     <g id="line2d_6">
      <g>
       <use xlink:href="#m67db13d0a9" x="235.259587" y="326.151875" style="stroke: #000000; stroke-width: 0.8"/>
      </g>
     </g>
     <g id="text_6">
      <!-- 40 -->
      <g transform="translate(228.897087 340.750312) scale(0.1 -0.1)">
       <use xlink:href="#DejaVuSans-34"/>
       <use xlink:href="#DejaVuSans-30" transform="translate(63.623047 0)"/>
      </g>
     </g>
    </g>
    <g id="xtick_7">
     <g id="line2d_7">
      <g>
       <use xlink:href="#m67db13d0a9" x="277.887548" y="326.151875" style="stroke: #000000; stroke-width: 0.8"/>
      </g>
     </g>
     <g id="text_7">
      <!-- 48 -->
      <g transform="translate(271.525048 340.750312) scale(0.1 -0.1)">
       <use xlink:href="#DejaVuSans-34"/>
       <use xlink:href="#DejaVuSans-38" transform="translate(63.623047 0)"/>
      </g>
     </g>
    </g>
    <g id="xtick_8">
     <g id="line2d_8">
      <g>
       <use xlink:href="#m67db13d0a9" x="320.515508" y="326.151875" style="stroke: #000000; stroke-width: 0.8"/>
      </g>
     </g>
     <g id="text_8">
      <!-- 56 -->
      <g transform="translate(314.153008 340.750312) scale(0.1 -0.1)">
       <defs>
        <path id="DejaVuSans-35" d="M 691 4666 
L 3169 4666 
L 3169 4134 
L 1269 4134 
L 1269 2991 
Q 1406 3038 1543 3061 
Q 1681 3084 1819 3084 
Q 2600 3084 3056 2656 
Q 3513 2228 3513 1497 
Q 3513 744 3044 326 
Q 2575 -91 1722 -91 
Q 1428 -91 1123 -41 
Q 819 9 494 109 
L 494 744 
Q 775 591 1075 516 
Q 1375 441 1709 441 
Q 2250 441 2565 725 
Q 2881 1009 2881 1497 
Q 2881 1984 2565 2268 
Q 2250 2553 1709 2553 
Q 1456 2553 1204 2497 
Q 953 2441 691 2322 
L 691 4666 
z
" transform="scale(0.015625)"/>
       </defs>
       <use xlink:href="#DejaVuSans-35"/>
       <use xlink:href="#DejaVuSans-36" transform="translate(63.623047 0)"/>
      </g>
     </g>
    </g>
    <g id="text_9">
     <!-- Process Counts -->
     <g transform="translate(110.506397 358.9875) scale(0.16 -0.16)">
      <defs>
       <path id="DejaVuSans-50" d="M 1259 4147 
L 1259 2394 
L 2053 2394 
Q 2494 2394 2734 2622 
Q 2975 2850 2975 3272 
Q 2975 3691 2734 3919 
Q 2494 4147 2053 4147 
L 1259 4147 
z
M 628 4666 
L 2053 4666 
Q 2838 4666 3239 4311 
Q 3641 3956 3641 3272 
Q 3641 2581 3239 2228 
Q 2838 1875 2053 1875 
L 1259 1875 
L 1259 0 
L 628 0 
L 628 4666 
z
" transform="scale(0.015625)"/>
       <path id="DejaVuSans-72" d="M 2631 2963 
Q 2534 3019 2420 3045 
Q 2306 3072 2169 3072 
Q 1681 3072 1420 2755 
Q 1159 2438 1159 1844 
L 1159 0 
L 581 0 
L 581 3500 
L 1159 3500 
L 1159 2956 
Q 1341 3275 1631 3429 
Q 1922 3584 2338 3584 
Q 2397 3584 2469 3576 
Q 2541 3569 2628 3553 
L 2631 2963 
z
" transform="scale(0.015625)"/>
       <path id="DejaVuSans-6f" d="M 1959 3097 
Q 1497 3097 1228 2736 
Q 959 2375 959 1747 
Q 959 1119 1226 758 
Q 1494 397 1959 397 
Q 2419 397 2687 759 
Q 2956 1122 2956 1747 
Q 2956 2369 2687 2733 
Q 2419 3097 1959 3097 
z
M 1959 3584 
Q 2709 3584 3137 3096 
Q 3566 2609 3566 1747 
Q 3566 888 3137 398 
Q 2709 -91 1959 -91 
Q 1206 -91 779 398 
Q 353 888 353 1747 
Q 353 2609 779 3096 
Q 1206 3584 1959 3584 
z
" transform="scale(0.015625)"/>
       <path id="DejaVuSans-63" d="M 3122 3366 
L 3122 2828 
Q 2878 2963 2633 3030 
Q 2388 3097 2138 3097 
Q 1578 3097 1268 2742 
Q 959 2388 959 1747 
Q 959 1106 1268 751 
Q 1578 397 2138 397 
Q 2388 397 2633 464 
Q 2878 531 3122 666 
L 3122 134 
Q 2881 22 2623 -34 
Q 2366 -91 2075 -91 
Q 1284 -91 818 406 
Q 353 903 353 1747 
Q 353 2603 823 3093 
Q 1294 3584 2113 3584 
Q 2378 3584 2631 3529 
Q 2884 3475 3122 3366 
z
" transform="scale(0.015625)"/>
       <path id="DejaVuSans-65" d="M 3597 1894 
L 3597 1613 
L 953 1613 
Q 991 1019 1311 708 
Q 1631 397 2203 397 
Q 2534 397 2845 478 
Q 3156 559 3463 722 
L 3463 178 
Q 3153 47 2828 -22 
Q 2503 -91 2169 -91 
Q 1331 -91 842 396 
Q 353 884 353 1716 
Q 353 2575 817 3079 
Q 1281 3584 2069 3584 
Q 2775 3584 3186 3129 
Q 3597 2675 3597 1894 
z
M 3022 2063 
Q 3016 2534 2758 2815 
Q 2500 3097 2075 3097 
Q 1594 3097 1305 2825 
Q 1016 2553 972 2059 
L 3022 2063 
z
" transform="scale(0.015625)"/>
       <path id="DejaVuSans-73" d="M 2834 3397 
L 2834 2853 
Q 2591 2978 2328 3040 
Q 2066 3103 1784 3103 
Q 1356 3103 1142 2972 
Q 928 2841 928 2578 
Q 928 2378 1081 2264 
Q 1234 2150 1697 2047 
L 1894 2003 
Q 2506 1872 2764 1633 
Q 3022 1394 3022 966 
Q 3022 478 2636 193 
Q 2250 -91 1575 -91 
Q 1294 -91 989 -36 
Q 684 19 347 128 
L 347 722 
Q 666 556 975 473 
Q 1284 391 1588 391 
Q 1994 391 2212 530 
Q 2431 669 2431 922 
Q 2431 1156 2273 1281 
Q 2116 1406 1581 1522 
L 1381 1569 
Q 847 1681 609 1914 
Q 372 2147 372 2553 
Q 372 3047 722 3315 
Q 1072 3584 1716 3584 
Q 2034 3584 2315 3537 
Q 2597 3491 2834 3397 
z
" transform="scale(0.015625)"/>
       <path id="DejaVuSans-20" transform="scale(0.015625)"/>
       <path id="DejaVuSans-43" d="M 4122 4306 
L 4122 3641 
Q 3803 3938 3442 4084 
Q 3081 4231 2675 4231 
Q 1875 4231 1450 3742 
Q 1025 3253 1025 2328 
Q 1025 1406 1450 917 
Q 1875 428 2675 428 
Q 3081 428 3442 575 
Q 3803 722 4122 1019 
L 4122 359 
Q 3791 134 3420 21 
Q 3050 -91 2638 -91 
Q 1578 -91 968 557 
Q 359 1206 359 2328 
Q 359 3453 968 4101 
Q 1578 4750 2638 4750 
Q 3056 4750 3426 4639 
Q 3797 4528 4122 4306 
z
" transform="scale(0.015625)"/>
       <path id="DejaVuSans-75" d="M 544 1381 
L 544 3500 
L 1119 3500 
L 1119 1403 
Q 1119 906 1312 657 
Q 1506 409 1894 409 
Q 2359 409 2629 706 
Q 2900 1003 2900 1516 
L 2900 3500 
L 3475 3500 
L 3475 0 
L 2900 0 
L 2900 538 
Q 2691 219 2414 64 
Q 2138 -91 1772 -91 
Q 1169 -91 856 284 
Q 544 659 544 1381 
z
M 1991 3584 
L 1991 3584 
z
" transform="scale(0.015625)"/>
       <path id="DejaVuSans-6e" d="M 3513 2113 
L 3513 0 
L 2938 0 
L 2938 2094 
Q 2938 2591 2744 2837 
Q 2550 3084 2163 3084 
Q 1697 3084 1428 2787 
Q 1159 2491 1159 1978 
L 1159 0 
L 581 0 
L 581 3500 
L 1159 3500 
L 1159 2956 
Q 1366 3272 1645 3428 
Q 1925 3584 2291 3584 
Q 2894 3584 3203 3211 
Q 3513 2838 3513 2113 
z
" transform="scale(0.015625)"/>
       <path id="DejaVuSans-74" d="M 1172 4494 
L 1172 3500 
L 2356 3500 
L 2356 3053 
L 1172 3053 
L 1172 1153 
Q 1172 725 1289 603 
Q 1406 481 1766 481 
L 2356 481 
L 2356 0 
L 1766 0 
Q 1100 0 847 248 
Q 594 497 594 1153 
L 594 3053 
L 172 3053 
L 172 3500 
L 594 3500 
L 594 4494 
L 1172 4494 
z
" transform="scale(0.015625)"/>
      </defs>
      <use xlink:href="#DejaVuSans-50"/>
      <use xlink:href="#DejaVuSans-72" transform="translate(58.552734 0)"/>
      <use xlink:href="#DejaVuSans-6f" transform="translate(97.416016 0)"/>
      <use xlink:href="#DejaVuSans-63" transform="translate(158.597656 0)"/>
      <use xlink:href="#DejaVuSans-65" transform="translate(213.578125 0)"/>
      <use xlink:href="#DejaVuSans-73" transform="translate(275.101562 0)"/>
      <use xlink:href="#DejaVuSans-73" transform="translate(327.201172 0)"/>
      <use xlink:href="#DejaVuSans-20" transform="translate(379.300781 0)"/>
      <use xlink:href="#DejaVuSans-43" transform="translate(411.087891 0)"/>
      <use xlink:href="#DejaVuSans-6f" transform="translate(480.912109 0)"/>
      <use xlink:href="#DejaVuSans-75" transform="translate(542.09375 0)"/>
      <use xlink:href="#DejaVuSans-6e" transform="translate(605.472656 0)"/>
      <use xlink:href="#DejaVuSans-74" transform="translate(668.851562 0)"/>
      <use xlink:href="#DejaVuSans-73" transform="translate(708.060547 0)"/>
     </g>
    </g>
   </g>
   <g id="LineCollection_1">
    <path d="M 22.119786 313.551875 
L 22.119786 61.551875 
" clip-path="url(#p7fe4c7564d)" style="fill: none; stroke: #808080; stroke-width: 1.5"/>
    <path d="M 27.448281 313.551875 
L 27.448281 282.02981 
" clip-path="url(#p7fe4c7564d)" style="fill: none; stroke: #808080; stroke-width: 1.5"/>
    <path d="M 32.776776 313.551875 
L 32.776776 213.362142 
" clip-path="url(#p7fe4c7564d)" style="fill: none; stroke: #808080; stroke-width: 1.5"/>
    <path d="M 38.105271 313.551875 
L 38.105271 276.381055 
" clip-path="url(#p7fe4c7564d)" style="fill: none; stroke: #808080; stroke-width: 1.5"/>
    <path d="M 43.433766 313.551875 
L 43.433766 263.54527 
" clip-path="url(#p7fe4c7564d)" style="fill: none; stroke: #808080; stroke-width: 1.5"/>
    <path d="M 48.762261 313.551875 
L 48.762261 300.539566 
" clip-path="url(#p7fe4c7564d)" style="fill: none; stroke: #808080; stroke-width: 1.5"/>
    <path d="M 54.090756 313.551875 
L 54.090756 278.297597 
" clip-path="url(#p7fe4c7564d)" style="fill: none; stroke: #808080; stroke-width: 1.5"/>
    <path d="M 59.419251 313.551875 
L 59.419251 298.118672 
" clip-path="url(#p7fe4c7564d)" style="fill: none; stroke: #808080; stroke-width: 1.5"/>
    <path d="M 64.747746 313.551875 
L 64.747746 285.938546 
" clip-path="url(#p7fe4c7564d)" style="fill: none; stroke: #808080; stroke-width: 1.5"/>
    <path d="M 70.076241 313.551875 
L 70.076241 301.170008 
" clip-path="url(#p7fe4c7564d)" style="fill: none; stroke: #808080; stroke-width: 1.5"/>
    <path d="M 75.404736 313.551875 
L 75.404736 295.748212 
" clip-path="url(#p7fe4c7564d)" style="fill: none; stroke: #808080; stroke-width: 1.5"/>
    <path d="M 80.733231 313.551875 
L 80.733231 304.851785 
" clip-path="url(#p7fe4c7564d)" style="fill: none; stroke: #808080; stroke-width: 1.5"/>
    <path d="M 86.061727 313.551875 
L 86.061727 298.068236 
" clip-path="url(#p7fe4c7564d)" style="fill: none; stroke: #808080; stroke-width: 1.5"/>
    <path d="M 91.390222 313.551875 
L 91.390222 306.843979 
" clip-path="url(#p7fe4c7564d)" style="fill: none; stroke: #808080; stroke-width: 1.5"/>
    <path d="M 96.718717 313.551875 
L 96.718717 302.304802 
" clip-path="url(#p7fe4c7564d)" style="fill: none; stroke: #808080; stroke-width: 1.5"/>
    <path d="M 102.047212 313.551875 
L 102.047212 307.751815 
" clip-path="url(#p7fe4c7564d)" style="fill: none; stroke: #808080; stroke-width: 1.5"/>
    <path d="M 107.375707 313.551875 
L 107.375707 305.179614 
" clip-path="url(#p7fe4c7564d)" style="fill: none; stroke: #808080; stroke-width: 1.5"/>
    <path d="M 112.704202 313.551875 
L 112.704202 308.583997 
" clip-path="url(#p7fe4c7564d)" style="fill: none; stroke: #808080; stroke-width: 1.5"/>
    <path d="M 118.032697 313.551875 
L 118.032697 307.499638 
" clip-path="url(#p7fe4c7564d)" style="fill: none; stroke: #808080; stroke-width: 1.5"/>
    <path d="M 123.361192 313.551875 
L 123.361192 310.904022 
" clip-path="url(#p7fe4c7564d)" style="fill: none; stroke: #808080; stroke-width: 1.5"/>
    <path d="M 128.689687 313.551875 
L 128.689687 310.021404 
" clip-path="url(#p7fe4c7564d)" style="fill: none; stroke: #808080; stroke-width: 1.5"/>
    <path d="M 134.018182 313.551875 
L 134.018182 311.408375 
" clip-path="url(#p7fe4c7564d)" style="fill: none; stroke: #808080; stroke-width: 1.5"/>
    <path d="M 139.346677 313.551875 
L 139.346677 311.004892 
" clip-path="url(#p7fe4c7564d)" style="fill: none; stroke: #808080; stroke-width: 1.5"/>
    <path d="M 144.675172 313.551875 
L 144.675172 311.685769 
" clip-path="url(#p7fe4c7564d)" style="fill: none; stroke: #808080; stroke-width: 1.5"/>
    <path d="M 150.003667 313.551875 
L 150.003667 311.509245 
" clip-path="url(#p7fe4c7564d)" style="fill: none; stroke: #808080; stroke-width: 1.5"/>
    <path d="M 155.332162 313.551875 
L 155.332162 312.240557 
" clip-path="url(#p7fe4c7564d)" style="fill: none; stroke: #808080; stroke-width: 1.5"/>
    <path d="M 160.660657 313.551875 
L 160.660657 312.341428 
" clip-path="url(#p7fe4c7564d)" style="fill: none; stroke: #808080; stroke-width: 1.5"/>
    <path d="M 165.989152 313.551875 
L 165.989152 312.946651 
" clip-path="url(#p7fe4c7564d)" style="fill: none; stroke: #808080; stroke-width: 1.5"/>
    <path d="M 171.317647 313.551875 
L 171.317647 312.265775 
" clip-path="url(#p7fe4c7564d)" style="fill: none; stroke: #808080; stroke-width: 1.5"/>
    <path d="M 176.646142 313.551875 
L 176.646142 313.17361 
" clip-path="url(#p7fe4c7564d)" style="fill: none; stroke: #808080; stroke-width: 1.5"/>
    <path d="M 181.974637 313.551875 
L 181.974637 312.64404 
" clip-path="url(#p7fe4c7564d)" style="fill: none; stroke: #808080; stroke-width: 1.5"/>
    <path d="M 187.303132 313.551875 
L 187.303132 313.224046 
" clip-path="url(#p7fe4c7564d)" style="fill: none; stroke: #808080; stroke-width: 1.5"/>
    <path d="M 192.631627 313.551875 
L 192.631627 312.971869 
" clip-path="url(#p7fe4c7564d)" style="fill: none; stroke: #808080; stroke-width: 1.5"/>
    <path d="M 197.960122 313.551875 
L 197.960122 313.375351 
" clip-path="url(#p7fe4c7564d)" style="fill: none; stroke: #808080; stroke-width: 1.5"/>
    <path d="M 203.288617 313.551875 
L 203.288617 313.148393 
" clip-path="url(#p7fe4c7564d)" style="fill: none; stroke: #808080; stroke-width: 1.5"/>
    <path d="M 208.617112 313.551875 
L 208.617112 313.324916 
" clip-path="url(#p7fe4c7564d)" style="fill: none; stroke: #808080; stroke-width: 1.5"/>
    <path d="M 213.945607 313.551875 
L 213.945607 313.249263 
" clip-path="url(#p7fe4c7564d)" style="fill: none; stroke: #808080; stroke-width: 1.5"/>
    <path d="M 219.274102 313.551875 
L 219.274102 313.350134 
" clip-path="url(#p7fe4c7564d)" style="fill: none; stroke: #808080; stroke-width: 1.5"/>
    <path d="M 224.602597 313.551875 
L 224.602597 313.375351 
" clip-path="url(#p7fe4c7564d)" style="fill: none; stroke: #808080; stroke-width: 1.5"/>
    <path d="M 229.931092 313.551875 
L 229.931092 313.476222 
" clip-path="url(#p7fe4c7564d)" style="fill: none; stroke: #808080; stroke-width: 1.5"/>
    <path d="M 235.259587 313.551875 
L 235.259587 313.400569 
" clip-path="url(#p7fe4c7564d)" style="fill: none; stroke: #808080; stroke-width: 1.5"/>
    <path d="M 240.588083 313.551875 
L 240.588083 313.50144 
" clip-path="url(#p7fe4c7564d)" style="fill: none; stroke: #808080; stroke-width: 1.5"/>
    <path d="M 245.916578 313.551875 
L 245.916578 313.425787 
" clip-path="url(#p7fe4c7564d)" style="fill: none; stroke: #808080; stroke-width: 1.5"/>
    <path d="M 251.245073 313.551875 
L 251.245073 313.526657 
" clip-path="url(#p7fe4c7564d)" style="fill: none; stroke: #808080; stroke-width: 1.5"/>
    <path d="M 256.573568 313.551875 
L 256.573568 313.476222 
" clip-path="url(#p7fe4c7564d)" style="fill: none; stroke: #808080; stroke-width: 1.5"/>
    <path d="M 261.902063 313.551875 
L 261.902063 313.50144 
" clip-path="url(#p7fe4c7564d)" style="fill: none; stroke: #808080; stroke-width: 1.5"/>
    <path d="M 267.230558 313.551875 
L 267.230558 313.400569 
" clip-path="url(#p7fe4c7564d)" style="fill: none; stroke: #808080; stroke-width: 1.5"/>
    <path d="M 277.887548 313.551875 
L 277.887548 313.50144 
" clip-path="url(#p7fe4c7564d)" style="fill: none; stroke: #808080; stroke-width: 1.5"/>
    <path d="M 288.544538 313.551875 
L 288.544538 313.526657 
" clip-path="url(#p7fe4c7564d)" style="fill: none; stroke: #808080; stroke-width: 1.5"/>
    <path d="M 299.201528 313.551875 
L 299.201528 313.50144 
" clip-path="url(#p7fe4c7564d)" style="fill: none; stroke: #808080; stroke-width: 1.5"/>
    <path d="M 309.858518 313.551875 
L 309.858518 313.526657 
" clip-path="url(#p7fe4c7564d)" style="fill: none; stroke: #808080; stroke-width: 1.5"/>
    <path d="M 320.515508 313.551875 
L 320.515508 313.50144 
" clip-path="url(#p7fe4c7564d)" style="fill: none; stroke: #808080; stroke-width: 1.5"/>
   </g>
   <g id="line2d_9">
    <defs>
     <path id="m7b963e0cfc" d="M 0 2.5 
C 0.663008 2.5 1.29895 2.236584 1.767767 1.767767 
C 2.236584 1.29895 2.5 0.663008 2.5 0 
C 2.5 -0.663008 2.236584 -1.29895 1.767767 -1.767767 
C 1.29895 -2.236584 0.663008 -2.5 0 -2.5 
C -0.663008 -2.5 -1.29895 -2.236584 -1.767767 -1.767767 
C -2.236584 -1.29895 -2.5 -0.663008 -2.5 0 
C -2.5 0.663008 -2.236584 1.29895 -1.767767 1.767767 
C -1.29895 2.236584 -0.663008 2.5 0 2.5 
z
" style="stroke: #000000; stroke-width: 1.5"/>
    </defs>
    <g clip-path="url(#p7fe4c7564d)">
     <use xlink:href="#m7b963e0cfc" x="22.119786" y="61.551875" style="fill: #b2b2b2; stroke: #000000; stroke-width: 1.5"/>
     <use xlink:href="#m7b963e0cfc" x="27.448281" y="282.02981" style="fill: #b2b2b2; stroke: #000000; stroke-width: 1.5"/>
     <use xlink:href="#m7b963e0cfc" x="32.776776" y="213.362142" style="fill: #b2b2b2; stroke: #000000; stroke-width: 1.5"/>
     <use xlink:href="#m7b963e0cfc" x="38.105271" y="276.381055" style="fill: #b2b2b2; stroke: #000000; stroke-width: 1.5"/>
     <use xlink:href="#m7b963e0cfc" x="43.433766" y="263.54527" style="fill: #b2b2b2; stroke: #000000; stroke-width: 1.5"/>
     <use xlink:href="#m7b963e0cfc" x="48.762261" y="300.539566" style="fill: #b2b2b2; stroke: #000000; stroke-width: 1.5"/>
     <use xlink:href="#m7b963e0cfc" x="54.090756" y="278.297597" style="fill: #b2b2b2; stroke: #000000; stroke-width: 1.5"/>
     <use xlink:href="#m7b963e0cfc" x="59.419251" y="298.118672" style="fill: #b2b2b2; stroke: #000000; stroke-width: 1.5"/>
     <use xlink:href="#m7b963e0cfc" x="64.747746" y="285.938546" style="fill: #b2b2b2; stroke: #000000; stroke-width: 1.5"/>
     <use xlink:href="#m7b963e0cfc" x="70.076241" y="301.170008" style="fill: #b2b2b2; stroke: #000000; stroke-width: 1.5"/>
     <use xlink:href="#m7b963e0cfc" x="75.404736" y="295.748212" style="fill: #b2b2b2; stroke: #000000; stroke-width: 1.5"/>
     <use xlink:href="#m7b963e0cfc" x="80.733231" y="304.851785" style="fill: #b2b2b2; stroke: #000000; stroke-width: 1.5"/>
     <use xlink:href="#m7b963e0cfc" x="86.061727" y="298.068236" style="fill: #b2b2b2; stroke: #000000; stroke-width: 1.5"/>
     <use xlink:href="#m7b963e0cfc" x="91.390222" y="306.843979" style="fill: #b2b2b2; stroke: #000000; stroke-width: 1.5"/>
     <use xlink:href="#m7b963e0cfc" x="96.718717" y="302.304802" style="fill: #b2b2b2; stroke: #000000; stroke-width: 1.5"/>
     <use xlink:href="#m7b963e0cfc" x="102.047212" y="307.751815" style="fill: #b2b2b2; stroke: #000000; stroke-width: 1.5"/>
     <use xlink:href="#m7b963e0cfc" x="107.375707" y="305.179614" style="fill: #b2b2b2; stroke: #000000; stroke-width: 1.5"/>
     <use xlink:href="#m7b963e0cfc" x="112.704202" y="308.583997" style="fill: #b2b2b2; stroke: #000000; stroke-width: 1.5"/>
     <use xlink:href="#m7b963e0cfc" x="118.032697" y="307.499638" style="fill: #b2b2b2; stroke: #000000; stroke-width: 1.5"/>
     <use xlink:href="#m7b963e0cfc" x="123.361192" y="310.904022" style="fill: #b2b2b2; stroke: #000000; stroke-width: 1.5"/>
     <use xlink:href="#m7b963e0cfc" x="128.689687" y="310.021404" style="fill: #b2b2b2; stroke: #000000; stroke-width: 1.5"/>
     <use xlink:href="#m7b963e0cfc" x="134.018182" y="311.408375" style="fill: #b2b2b2; stroke: #000000; stroke-width: 1.5"/>
     <use xlink:href="#m7b963e0cfc" x="139.346677" y="311.004892" style="fill: #b2b2b2; stroke: #000000; stroke-width: 1.5"/>
     <use xlink:href="#m7b963e0cfc" x="144.675172" y="311.685769" style="fill: #b2b2b2; stroke: #000000; stroke-width: 1.5"/>
     <use xlink:href="#m7b963e0cfc" x="150.003667" y="311.509245" style="fill: #b2b2b2; stroke: #000000; stroke-width: 1.5"/>
     <use xlink:href="#m7b963e0cfc" x="155.332162" y="312.240557" style="fill: #b2b2b2; stroke: #000000; stroke-width: 1.5"/>
     <use xlink:href="#m7b963e0cfc" x="160.660657" y="312.341428" style="fill: #b2b2b2; stroke: #000000; stroke-width: 1.5"/>
     <use xlink:href="#m7b963e0cfc" x="165.989152" y="312.946651" style="fill: #b2b2b2; stroke: #000000; stroke-width: 1.5"/>
     <use xlink:href="#m7b963e0cfc" x="171.317647" y="312.265775" style="fill: #b2b2b2; stroke: #000000; stroke-width: 1.5"/>
     <use xlink:href="#m7b963e0cfc" x="176.646142" y="313.17361" style="fill: #b2b2b2; stroke: #000000; stroke-width: 1.5"/>
     <use xlink:href="#m7b963e0cfc" x="181.974637" y="312.64404" style="fill: #b2b2b2; stroke: #000000; stroke-width: 1.5"/>
     <use xlink:href="#m7b963e0cfc" x="187.303132" y="313.224046" style="fill: #b2b2b2; stroke: #000000; stroke-width: 1.5"/>
     <use xlink:href="#m7b963e0cfc" x="192.631627" y="312.971869" style="fill: #b2b2b2; stroke: #000000; stroke-width: 1.5"/>
     <use xlink:href="#m7b963e0cfc" x="197.960122" y="313.375351" style="fill: #b2b2b2; stroke: #000000; stroke-width: 1.5"/>
     <use xlink:href="#m7b963e0cfc" x="203.288617" y="313.148393" style="fill: #b2b2b2; stroke: #000000; stroke-width: 1.5"/>
     <use xlink:href="#m7b963e0cfc" x="208.617112" y="313.324916" style="fill: #b2b2b2; stroke: #000000; stroke-width: 1.5"/>
     <use xlink:href="#m7b963e0cfc" x="213.945607" y="313.249263" style="fill: #b2b2b2; stroke: #000000; stroke-width: 1.5"/>
     <use xlink:href="#m7b963e0cfc" x="219.274102" y="313.350134" style="fill: #b2b2b2; stroke: #000000; stroke-width: 1.5"/>
     <use xlink:href="#m7b963e0cfc" x="224.602597" y="313.375351" style="fill: #b2b2b2; stroke: #000000; stroke-width: 1.5"/>
     <use xlink:href="#m7b963e0cfc" x="229.931092" y="313.476222" style="fill: #b2b2b2; stroke: #000000; stroke-width: 1.5"/>
     <use xlink:href="#m7b963e0cfc" x="235.259587" y="313.400569" style="fill: #b2b2b2; stroke: #000000; stroke-width: 1.5"/>
     <use xlink:href="#m7b963e0cfc" x="240.588083" y="313.50144" style="fill: #b2b2b2; stroke: #000000; stroke-width: 1.5"/>
     <use xlink:href="#m7b963e0cfc" x="245.916578" y="313.425787" style="fill: #b2b2b2; stroke: #000000; stroke-width: 1.5"/>
     <use xlink:href="#m7b963e0cfc" x="251.245073" y="313.526657" style="fill: #b2b2b2; stroke: #000000; stroke-width: 1.5"/>
     <use xlink:href="#m7b963e0cfc" x="256.573568" y="313.476222" style="fill: #b2b2b2; stroke: #000000; stroke-width: 1.5"/>
     <use xlink:href="#m7b963e0cfc" x="261.902063" y="313.50144" style="fill: #b2b2b2; stroke: #000000; stroke-width: 1.5"/>
     <use xlink:href="#m7b963e0cfc" x="267.230558" y="313.400569" style="fill: #b2b2b2; stroke: #000000; stroke-width: 1.5"/>
     <use xlink:href="#m7b963e0cfc" x="277.887548" y="313.50144" style="fill: #b2b2b2; stroke: #000000; stroke-width: 1.5"/>
     <use xlink:href="#m7b963e0cfc" x="288.544538" y="313.526657" style="fill: #b2b2b2; stroke: #000000; stroke-width: 1.5"/>
     <use xlink:href="#m7b963e0cfc" x="299.201528" y="313.50144" style="fill: #b2b2b2; stroke: #000000; stroke-width: 1.5"/>
     <use xlink:href="#m7b963e0cfc" x="309.858518" y="313.526657" style="fill: #b2b2b2; stroke: #000000; stroke-width: 1.5"/>
     <use xlink:href="#m7b963e0cfc" x="320.515508" y="313.50144" style="fill: #b2b2b2; stroke: #000000; stroke-width: 1.5"/>
    </g>
   </g>
   <g id="line2d_10"/>
   <g id="line2d_11">
    <path d="M 22.119786 61.551875 
" clip-path="url(#p7fe4c7564d)" style="fill: none; stroke: #ff7f0e; stroke-width: 1.5; stroke-linecap: square"/>
    <defs>
     <path id="mb6d5380e99" d="M 0 7 
C 1.856422 7 3.637059 6.262436 4.949747 4.949747 
C 6.262436 3.637059 7 1.856422 7 0 
C 7 -1.856422 6.262436 -3.637059 4.949747 -4.949747 
C 3.637059 -6.262436 1.856422 -7 0 -7 
C -1.856422 -7 -3.637059 -6.262436 -4.949747 -4.949747 
C -6.262436 -3.637059 -7 -1.856422 -7 0 
C -7 1.856422 -6.262436 3.637059 -4.949747 4.949747 
C -3.637059 6.262436 -1.856422 7 0 7 
z
" style="stroke: #ff0000; stroke-opacity: 0.9; stroke-width: 2"/>
    </defs>
    <g clip-path="url(#p7fe4c7564d)">
     <use xlink:href="#mb6d5380e99" x="22.119786" y="61.551875" style="fill: #ff0000; fill-opacity: 0.3; stroke: #ff0000; stroke-opacity: 0.9; stroke-width: 2"/>
    </g>
   </g>
   <g id="patch_3">
    <path d="M 22.119786 326.151875 
L 320.515508 326.151875 
" style="fill: none; stroke: #000000; stroke-width: 0.8; stroke-linejoin: miter; stroke-linecap: square"/>
   </g>
   <g id="patch_4">
    <path d="M 73.41347 112.060807 
Q 59.570621 81.956499 32.037901 66.580764 
" style="fill: none; stroke: #000000; stroke-linecap: round"/>
    <path d="M 34.555075 70.277226 
L 32.037901 66.580764 
L 36.505375 66.784902 
" style="fill: none; stroke: #000000; stroke-linecap: round"/>
   </g>
   <g id="text_10">
    <!-- Zero Inflated -->
    <g transform="translate(75.404736 119.409094) scale(0.1 -0.1)">
     <defs>
      <path id="DejaVuSans-5a" d="M 359 4666 
L 4025 4666 
L 4025 4184 
L 1075 531 
L 4097 531 
L 4097 0 
L 288 0 
L 288 481 
L 3238 4134 
L 359 4134 
L 359 4666 
z
" transform="scale(0.015625)"/>
      <path id="DejaVuSans-49" d="M 628 4666 
L 1259 4666 
L 1259 0 
L 628 0 
L 628 4666 
z
" transform="scale(0.015625)"/>
      <path id="DejaVuSans-66" d="M 2375 4863 
L 2375 4384 
L 1825 4384 
Q 1516 4384 1395 4259 
Q 1275 4134 1275 3809 
L 1275 3500 
L 2222 3500 
L 2222 3053 
L 1275 3053 
L 1275 0 
L 697 0 
L 697 3053 
L 147 3053 
L 147 3500 
L 697 3500 
L 697 3744 
Q 697 4328 969 4595 
Q 1241 4863 1831 4863 
L 2375 4863 
z
" transform="scale(0.015625)"/>
      <path id="DejaVuSans-6c" d="M 603 4863 
L 1178 4863 
L 1178 0 
L 603 0 
L 603 4863 
z
" transform="scale(0.015625)"/>
      <path id="DejaVuSans-61" d="M 2194 1759 
Q 1497 1759 1228 1600 
Q 959 1441 959 1056 
Q 959 750 1161 570 
Q 1363 391 1709 391 
Q 2188 391 2477 730 
Q 2766 1069 2766 1631 
L 2766 1759 
L 2194 1759 
z
M 3341 1997 
L 3341 0 
L 2766 0 
L 2766 531 
Q 2569 213 2275 61 
Q 1981 -91 1556 -91 
Q 1019 -91 701 211 
Q 384 513 384 1019 
Q 384 1609 779 1909 
Q 1175 2209 1959 2209 
L 2766 2209 
L 2766 2266 
Q 2766 2663 2505 2880 
Q 2244 3097 1772 3097 
Q 1472 3097 1187 3025 
Q 903 2953 641 2809 
L 641 3341 
Q 956 3463 1253 3523 
Q 1550 3584 1831 3584 
Q 2591 3584 2966 3190 
Q 3341 2797 3341 1997 
z
" transform="scale(0.015625)"/>
      <path id="DejaVuSans-64" d="M 2906 2969 
L 2906 4863 
L 3481 4863 
L 3481 0 
L 2906 0 
L 2906 525 
Q 2725 213 2448 61 
Q 2172 -91 1784 -91 
Q 1150 -91 751 415 
Q 353 922 353 1747 
Q 353 2572 751 3078 
Q 1150 3584 1784 3584 
Q 2172 3584 2448 3432 
Q 2725 3281 2906 2969 
z
M 947 1747 
Q 947 1113 1208 752 
Q 1469 391 1925 391 
Q 2381 391 2643 752 
Q 2906 1113 2906 1747 
Q 2906 2381 2643 2742 
Q 2381 3103 1925 3103 
Q 1469 3103 1208 2742 
Q 947 2381 947 1747 
z
" transform="scale(0.015625)"/>
     </defs>
     <use xlink:href="#DejaVuSans-5a"/>
     <use xlink:href="#DejaVuSans-65" transform="translate(68.505859 0)"/>
     <use xlink:href="#DejaVuSans-72" transform="translate(130.029297 0)"/>
     <use xlink:href="#DejaVuSans-6f" transform="translate(168.892578 0)"/>
     <use xlink:href="#DejaVuSans-20" transform="translate(230.074219 0)"/>
     <use xlink:href="#DejaVuSans-49" transform="translate(261.861328 0)"/>
     <use xlink:href="#DejaVuSans-6e" transform="translate(291.353516 0)"/>
     <use xlink:href="#DejaVuSans-66" transform="translate(354.732422 0)"/>
     <use xlink:href="#DejaVuSans-6c" transform="translate(389.9375 0)"/>
     <use xlink:href="#DejaVuSans-61" transform="translate(417.720703 0)"/>
     <use xlink:href="#DejaVuSans-74" transform="translate(479 0)"/>
     <use xlink:href="#DejaVuSans-65" transform="translate(518.208984 0)"/>
     <use xlink:href="#DejaVuSans-64" transform="translate(579.732422 0)"/>
    </g>
   </g>
   <g id="text_11">
    <!-- Process Counts Distribution -->
    <g transform="translate(33.78796 42.951875) scale(0.2 -0.2)">
     <defs>
      <path id="DejaVuSans-44" d="M 1259 4147 
L 1259 519 
L 2022 519 
Q 2988 519 3436 956 
Q 3884 1394 3884 2338 
Q 3884 3275 3436 3711 
Q 2988 4147 2022 4147 
L 1259 4147 
z
M 628 4666 
L 1925 4666 
Q 3281 4666 3915 4102 
Q 4550 3538 4550 2338 
Q 4550 1131 3912 565 
Q 3275 0 1925 0 
L 628 0 
L 628 4666 
z
" transform="scale(0.015625)"/>
      <path id="DejaVuSans-69" d="M 603 3500 
L 1178 3500 
L 1178 0 
L 603 0 
L 603 3500 
z
M 603 4863 
L 1178 4863 
L 1178 4134 
L 603 4134 
L 603 4863 
z
" transform="scale(0.015625)"/>
      <path id="DejaVuSans-62" d="M 3116 1747 
Q 3116 2381 2855 2742 
Q 2594 3103 2138 3103 
Q 1681 3103 1420 2742 
Q 1159 2381 1159 1747 
Q 1159 1113 1420 752 
Q 1681 391 2138 391 
Q 2594 391 2855 752 
Q 3116 1113 3116 1747 
z
M 1159 2969 
Q 1341 3281 1617 3432 
Q 1894 3584 2278 3584 
Q 2916 3584 3314 3078 
Q 3713 2572 3713 1747 
Q 3713 922 3314 415 
Q 2916 -91 2278 -91 
Q 1894 -91 1617 61 
Q 1341 213 1159 525 
L 1159 0 
L 581 0 
L 581 4863 
L 1159 4863 
L 1159 2969 
z
" transform="scale(0.015625)"/>
     </defs>
     <use xlink:href="#DejaVuSans-50"/>
     <use xlink:href="#DejaVuSans-72" transform="translate(58.552734 0)"/>
     <use xlink:href="#DejaVuSans-6f" transform="translate(97.416016 0)"/>
     <use xlink:href="#DejaVuSans-63" transform="translate(158.597656 0)"/>
     <use xlink:href="#DejaVuSans-65" transform="translate(213.578125 0)"/>
     <use xlink:href="#DejaVuSans-73" transform="translate(275.101562 0)"/>
     <use xlink:href="#DejaVuSans-73" transform="translate(327.201172 0)"/>
     <use xlink:href="#DejaVuSans-20" transform="translate(379.300781 0)"/>
     <use xlink:href="#DejaVuSans-43" transform="translate(411.087891 0)"/>
     <use xlink:href="#DejaVuSans-6f" transform="translate(480.912109 0)"/>
     <use xlink:href="#DejaVuSans-75" transform="translate(542.09375 0)"/>
     <use xlink:href="#DejaVuSans-6e" transform="translate(605.472656 0)"/>
     <use xlink:href="#DejaVuSans-74" transform="translate(668.851562 0)"/>
     <use xlink:href="#DejaVuSans-73" transform="translate(708.060547 0)"/>
     <use xlink:href="#DejaVuSans-20" transform="translate(760.160156 0)"/>
     <use xlink:href="#DejaVuSans-44" transform="translate(791.947266 0)"/>
     <use xlink:href="#DejaVuSans-69" transform="translate(868.949219 0)"/>
     <use xlink:href="#DejaVuSans-73" transform="translate(896.732422 0)"/>
     <use xlink:href="#DejaVuSans-74" transform="translate(948.832031 0)"/>
     <use xlink:href="#DejaVuSans-72" transform="translate(988.041016 0)"/>
     <use xlink:href="#DejaVuSans-69" transform="translate(1029.154297 0)"/>
     <use xlink:href="#DejaVuSans-62" transform="translate(1056.9375 0)"/>
     <use xlink:href="#DejaVuSans-75" transform="translate(1120.414062 0)"/>
     <use xlink:href="#DejaVuSans-74" transform="translate(1183.792969 0)"/>
     <use xlink:href="#DejaVuSans-69" transform="translate(1223.001953 0)"/>
     <use xlink:href="#DejaVuSans-6f" transform="translate(1250.785156 0)"/>
     <use xlink:href="#DejaVuSans-6e" transform="translate(1311.966797 0)"/>
    </g>
   </g>
  </g>
  <g id="axes_2">
   <g id="patch_5">
    <path d="M 401.082353 326.151875 
L 729.317647 326.151875 
L 729.317647 48.951875 
L 401.082353 48.951875 
z
" style="fill: #ffffff"/>
   </g>
   <g id="PathCollection_1">
    <defs>
     <path id="mbe7c67b7d4" d="M 0 5 
C 1.326016 5 2.597899 4.473168 3.535534 3.535534 
C 4.473168 2.597899 5 1.326016 5 0 
C 5 -1.326016 4.473168 -2.597899 3.535534 -3.535534 
C 2.597899 -4.473168 1.326016 -5 0 -5 
C -1.326016 -5 -2.597899 -4.473168 -3.535534 -3.535534 
C -4.473168 -2.597899 -5 -1.326016 -5 0 
C -5 1.326016 -4.473168 2.597899 -3.535534 3.535534 
C -2.597899 4.473168 -1.326016 5 0 5 
z
" style="stroke: #000000; stroke-opacity: 0.8"/>
    </defs>
    <g clip-path="url(#p55dbaed3e0)">
     <use xlink:href="#mbe7c67b7d4" x="420.344283" y="312.886677" style="fill: #ffffff; fill-opacity: 0.8; stroke: #000000; stroke-opacity: 0.8"/>
     <use xlink:href="#mbe7c67b7d4" x="482.419751" y="164.791885" style="fill: #ffffff; fill-opacity: 0.8; stroke: #000000; stroke-opacity: 0.8"/>
     <use xlink:href="#mbe7c67b7d4" x="504.811398" y="162.765666" style="fill: #ffffff; fill-opacity: 0.8; stroke: #000000; stroke-opacity: 0.8"/>
     <use xlink:href="#mbe7c67b7d4" x="520.425736" y="231.80072" style="fill: #ffffff; fill-opacity: 0.8; stroke: #000000; stroke-opacity: 0.8"/>
     <use xlink:href="#mbe7c67b7d4" x="533.818361" y="189.66062" style="fill: #ffffff; fill-opacity: 0.8; stroke: #000000; stroke-opacity: 0.8"/>
     <use xlink:href="#mbe7c67b7d4" x="545.686695" y="152.075099" style="fill: #ffffff; fill-opacity: 0.8; stroke: #000000; stroke-opacity: 0.8"/>
     <use xlink:href="#mbe7c67b7d4" x="556.941739" y="74.878678" style="fill: #ffffff; fill-opacity: 0.8; stroke: #000000; stroke-opacity: 0.8"/>
     <use xlink:href="#mbe7c67b7d4" x="567.274665" y="100.554002" style="fill: #ffffff; fill-opacity: 0.8; stroke: #000000; stroke-opacity: 0.8"/>
     <use xlink:href="#mbe7c67b7d4" x="577.894802" y="123.650675" style="fill: #ffffff; fill-opacity: 0.8; stroke: #000000; stroke-opacity: 0.8"/>
     <use xlink:href="#mbe7c67b7d4" x="588.664659" y="211.190852" style="fill: #ffffff; fill-opacity: 0.8; stroke: #000000; stroke-opacity: 0.8"/>
     <use xlink:href="#mbe7c67b7d4" x="600.361683" y="243.261322" style="fill: #ffffff; fill-opacity: 0.8; stroke: #000000; stroke-opacity: 0.8"/>
     <use xlink:href="#mbe7c67b7d4" x="612.995588" y="190.282441" style="fill: #ffffff; fill-opacity: 0.8; stroke: #000000; stroke-opacity: 0.8"/>
     <use xlink:href="#mbe7c67b7d4" x="627.726858" y="198.145903" style="fill: #ffffff; fill-opacity: 0.8; stroke: #000000; stroke-opacity: 0.8"/>
     <use xlink:href="#mbe7c67b7d4" x="647.548886" y="184.409065" style="fill: #ffffff; fill-opacity: 0.8; stroke: #000000; stroke-opacity: 0.8"/>
     <use xlink:href="#mbe7c67b7d4" x="691.42902" y="294.46119" style="fill: #ffffff; fill-opacity: 0.8; stroke: #000000; stroke-opacity: 0.8"/>
    </g>
   </g>
   <g id="matplotlib.axis_2">
    <g id="xtick_9">
     <g id="line2d_12">
      <g>
       <use xlink:href="#m67db13d0a9" x="401.082353" y="331.151875" style="stroke: #000000; stroke-width: 0.8"/>
      </g>
     </g>
     <g id="text_12">
      <!-- −1.0 -->
      <g transform="translate(388.940947 345.750312) scale(0.1 -0.1)">
       <defs>
        <path id="DejaVuSans-2212" d="M 678 2272 
L 4684 2272 
L 4684 1741 
L 678 1741 
L 678 2272 
z
" transform="scale(0.015625)"/>
        <path id="DejaVuSans-2e" d="M 684 794 
L 1344 794 
L 1344 0 
L 684 0 
L 684 794 
z
" transform="scale(0.015625)"/>
       </defs>
       <use xlink:href="#DejaVuSans-2212"/>
       <use xlink:href="#DejaVuSans-31" transform="translate(83.789062 0)"/>
       <use xlink:href="#DejaVuSans-2e" transform="translate(147.412109 0)"/>
       <use xlink:href="#DejaVuSans-30" transform="translate(179.199219 0)"/>
      </g>
     </g>
    </g>
    <g id="xtick_10">
     <g id="line2d_13">
      <g>
       <use xlink:href="#m67db13d0a9" x="483.141176" y="331.151875" style="stroke: #000000; stroke-width: 0.8"/>
      </g>
     </g>
     <g id="text_13">
      <!-- −0.5 -->
      <g transform="translate(470.99977 345.750312) scale(0.1 -0.1)">
       <use xlink:href="#DejaVuSans-2212"/>
       <use xlink:href="#DejaVuSans-30" transform="translate(83.789062 0)"/>
       <use xlink:href="#DejaVuSans-2e" transform="translate(147.412109 0)"/>
       <use xlink:href="#DejaVuSans-35" transform="translate(179.199219 0)"/>
      </g>
     </g>
    </g>
    <g id="xtick_11">
     <g id="line2d_14">
      <g>
       <use xlink:href="#m67db13d0a9" x="565.2" y="331.151875" style="stroke: #000000; stroke-width: 0.8"/>
      </g>
     </g>
     <g id="text_14">
      <!-- 0.0 -->
      <g transform="translate(557.248438 345.750312) scale(0.1 -0.1)">
       <use xlink:href="#DejaVuSans-30"/>
       <use xlink:href="#DejaVuSans-2e" transform="translate(63.623047 0)"/>
       <use xlink:href="#DejaVuSans-30" transform="translate(95.410156 0)"/>
      </g>
     </g>
    </g>
    <g id="xtick_12">
     <g id="line2d_15">
      <g>
       <use xlink:href="#m67db13d0a9" x="647.258824" y="331.151875" style="stroke: #000000; stroke-width: 0.8"/>
      </g>
     </g>
     <g id="text_15">
      <!-- 0.5 -->
      <g transform="translate(639.307261 345.750312) scale(0.1 -0.1)">
       <use xlink:href="#DejaVuSans-30"/>
       <use xlink:href="#DejaVuSans-2e" transform="translate(63.623047 0)"/>
       <use xlink:href="#DejaVuSans-35" transform="translate(95.410156 0)"/>
      </g>
     </g>
    </g>
    <g id="xtick_13">
     <g id="line2d_16">
      <g>
       <use xlink:href="#m67db13d0a9" x="729.317647" y="331.151875" style="stroke: #000000; stroke-width: 0.8"/>
      </g>
     </g>
     <g id="text_16">
      <!-- 1.0 -->
      <g transform="translate(721.366085 345.750312) scale(0.1 -0.1)">
       <use xlink:href="#DejaVuSans-31"/>
       <use xlink:href="#DejaVuSans-2e" transform="translate(63.623047 0)"/>
       <use xlink:href="#DejaVuSans-30" transform="translate(95.410156 0)"/>
      </g>
     </g>
    </g>
    <g id="text_17">
     <!-- LNRT Binned Residuals -->
     <g transform="translate(474.0025 363.9875) scale(0.16 -0.16)">
      <defs>
       <path id="DejaVuSans-4c" d="M 628 4666 
L 1259 4666 
L 1259 531 
L 3531 531 
L 3531 0 
L 628 0 
L 628 4666 
z
" transform="scale(0.015625)"/>
       <path id="DejaVuSans-4e" d="M 628 4666 
L 1478 4666 
L 3547 763 
L 3547 4666 
L 4159 4666 
L 4159 0 
L 3309 0 
L 1241 3903 
L 1241 0 
L 628 0 
L 628 4666 
z
" transform="scale(0.015625)"/>
       <path id="DejaVuSans-52" d="M 2841 2188 
Q 3044 2119 3236 1894 
Q 3428 1669 3622 1275 
L 4263 0 
L 3584 0 
L 2988 1197 
Q 2756 1666 2539 1819 
Q 2322 1972 1947 1972 
L 1259 1972 
L 1259 0 
L 628 0 
L 628 4666 
L 2053 4666 
Q 2853 4666 3247 4331 
Q 3641 3997 3641 3322 
Q 3641 2881 3436 2590 
Q 3231 2300 2841 2188 
z
M 1259 4147 
L 1259 2491 
L 2053 2491 
Q 2509 2491 2742 2702 
Q 2975 2913 2975 3322 
Q 2975 3731 2742 3939 
Q 2509 4147 2053 4147 
L 1259 4147 
z
" transform="scale(0.015625)"/>
       <path id="DejaVuSans-54" d="M -19 4666 
L 3928 4666 
L 3928 4134 
L 2272 4134 
L 2272 0 
L 1638 0 
L 1638 4134 
L -19 4134 
L -19 4666 
z
" transform="scale(0.015625)"/>
       <path id="DejaVuSans-42" d="M 1259 2228 
L 1259 519 
L 2272 519 
Q 2781 519 3026 730 
Q 3272 941 3272 1375 
Q 3272 1813 3026 2020 
Q 2781 2228 2272 2228 
L 1259 2228 
z
M 1259 4147 
L 1259 2741 
L 2194 2741 
Q 2656 2741 2882 2914 
Q 3109 3088 3109 3444 
Q 3109 3797 2882 3972 
Q 2656 4147 2194 4147 
L 1259 4147 
z
M 628 4666 
L 2241 4666 
Q 2963 4666 3353 4366 
Q 3744 4066 3744 3513 
Q 3744 3084 3544 2831 
Q 3344 2578 2956 2516 
Q 3422 2416 3680 2098 
Q 3938 1781 3938 1306 
Q 3938 681 3513 340 
Q 3088 0 2303 0 
L 628 0 
L 628 4666 
z
" transform="scale(0.015625)"/>
      </defs>
      <use xlink:href="#DejaVuSans-4c"/>
      <use xlink:href="#DejaVuSans-4e" transform="translate(55.712891 0)"/>
      <use xlink:href="#DejaVuSans-52" transform="translate(130.517578 0)"/>
      <use xlink:href="#DejaVuSans-54" transform="translate(192.75 0)"/>
      <use xlink:href="#DejaVuSans-20" transform="translate(253.833984 0)"/>
      <use xlink:href="#DejaVuSans-42" transform="translate(285.621094 0)"/>
      <use xlink:href="#DejaVuSans-69" transform="translate(354.224609 0)"/>
      <use xlink:href="#DejaVuSans-6e" transform="translate(382.007812 0)"/>
      <use xlink:href="#DejaVuSans-6e" transform="translate(445.386719 0)"/>
      <use xlink:href="#DejaVuSans-65" transform="translate(508.765625 0)"/>
      <use xlink:href="#DejaVuSans-64" transform="translate(570.289062 0)"/>
      <use xlink:href="#DejaVuSans-20" transform="translate(633.765625 0)"/>
      <use xlink:href="#DejaVuSans-52" transform="translate(665.552734 0)"/>
      <use xlink:href="#DejaVuSans-65" transform="translate(730.535156 0)"/>
      <use xlink:href="#DejaVuSans-73" transform="translate(792.058594 0)"/>
      <use xlink:href="#DejaVuSans-69" transform="translate(844.158203 0)"/>
      <use xlink:href="#DejaVuSans-64" transform="translate(871.941406 0)"/>
      <use xlink:href="#DejaVuSans-75" transform="translate(935.417969 0)"/>
      <use xlink:href="#DejaVuSans-61" transform="translate(998.796875 0)"/>
      <use xlink:href="#DejaVuSans-6c" transform="translate(1060.076172 0)"/>
      <use xlink:href="#DejaVuSans-73" transform="translate(1087.859375 0)"/>
     </g>
    </g>
   </g>
   <g id="matplotlib.axis_3">
    <g id="ytick_1">
     <g id="line2d_17">
      <defs>
       <path id="m1861579098" d="M 0 0 
L -3.5 0 
" style="stroke: #000000; stroke-width: 0.8"/>
      </defs>
      <g>
       <use xlink:href="#m1861579098" x="396.082353" y="326.151875" style="stroke: #000000; stroke-width: 0.8"/>
      </g>
     </g>
     <g id="text_18">
      <!-- −0.03 -->
      <g transform="translate(358.43704 329.951094) scale(0.1 -0.1)">
       <use xlink:href="#DejaVuSans-2212"/>
       <use xlink:href="#DejaVuSans-30" transform="translate(83.789062 0)"/>
       <use xlink:href="#DejaVuSans-2e" transform="translate(147.412109 0)"/>
       <use xlink:href="#DejaVuSans-30" transform="translate(179.199219 0)"/>
       <use xlink:href="#DejaVuSans-33" transform="translate(242.822266 0)"/>
      </g>
     </g>
    </g>
    <g id="ytick_2">
     <g id="line2d_18">
      <g>
       <use xlink:href="#m1861579098" x="396.082353" y="279.951875" style="stroke: #000000; stroke-width: 0.8"/>
      </g>
     </g>
     <g id="text_19">
      <!-- −0.02 -->
      <g transform="translate(358.43704 283.751094) scale(0.1 -0.1)">
       <use xlink:href="#DejaVuSans-2212"/>
       <use xlink:href="#DejaVuSans-30" transform="translate(83.789062 0)"/>
       <use xlink:href="#DejaVuSans-2e" transform="translate(147.412109 0)"/>
       <use xlink:href="#DejaVuSans-30" transform="translate(179.199219 0)"/>
       <use xlink:href="#DejaVuSans-32" transform="translate(242.822266 0)"/>
      </g>
     </g>
    </g>
    <g id="ytick_3">
     <g id="line2d_19">
      <g>
       <use xlink:href="#m1861579098" x="396.082353" y="233.751875" style="stroke: #000000; stroke-width: 0.8"/>
      </g>
     </g>
     <g id="text_20">
      <!-- −0.01 -->
      <g transform="translate(358.43704 237.551094) scale(0.1 -0.1)">
       <use xlink:href="#DejaVuSans-2212"/>
       <use xlink:href="#DejaVuSans-30" transform="translate(83.789062 0)"/>
       <use xlink:href="#DejaVuSans-2e" transform="translate(147.412109 0)"/>
       <use xlink:href="#DejaVuSans-30" transform="translate(179.199219 0)"/>
       <use xlink:href="#DejaVuSans-31" transform="translate(242.822266 0)"/>
      </g>
     </g>
    </g>
    <g id="ytick_4">
     <g id="line2d_20">
      <g>
       <use xlink:href="#m1861579098" x="396.082353" y="187.551875" style="stroke: #000000; stroke-width: 0.8"/>
      </g>
     </g>
     <g id="text_21">
      <!-- 0.00 -->
      <g transform="translate(366.816728 191.351094) scale(0.1 -0.1)">
       <use xlink:href="#DejaVuSans-30"/>
       <use xlink:href="#DejaVuSans-2e" transform="translate(63.623047 0)"/>
       <use xlink:href="#DejaVuSans-30" transform="translate(95.410156 0)"/>
       <use xlink:href="#DejaVuSans-30" transform="translate(159.033203 0)"/>
      </g>
     </g>
    </g>
    <g id="ytick_5">
     <g id="line2d_21">
      <g>
       <use xlink:href="#m1861579098" x="396.082353" y="141.351875" style="stroke: #000000; stroke-width: 0.8"/>
      </g>
     </g>
     <g id="text_22">
      <!-- 0.01 -->
      <g transform="translate(366.816728 145.151094) scale(0.1 -0.1)">
       <use xlink:href="#DejaVuSans-30"/>
       <use xlink:href="#DejaVuSans-2e" transform="translate(63.623047 0)"/>
       <use xlink:href="#DejaVuSans-30" transform="translate(95.410156 0)"/>
       <use xlink:href="#DejaVuSans-31" transform="translate(159.033203 0)"/>
      </g>
     </g>
    </g>
    <g id="ytick_6">
     <g id="line2d_22">
      <g>
       <use xlink:href="#m1861579098" x="396.082353" y="95.151875" style="stroke: #000000; stroke-width: 0.8"/>
      </g>
     </g>
     <g id="text_23">
      <!-- 0.02 -->
      <g transform="translate(366.816728 98.951094) scale(0.1 -0.1)">
       <use xlink:href="#DejaVuSans-30"/>
       <use xlink:href="#DejaVuSans-2e" transform="translate(63.623047 0)"/>
       <use xlink:href="#DejaVuSans-30" transform="translate(95.410156 0)"/>
       <use xlink:href="#DejaVuSans-32" transform="translate(159.033203 0)"/>
      </g>
     </g>
    </g>
    <g id="ytick_7">
     <g id="line2d_23">
      <g>
       <use xlink:href="#m1861579098" x="396.082353" y="48.951875" style="stroke: #000000; stroke-width: 0.8"/>
      </g>
     </g>
     <g id="text_24">
      <!-- 0.03 -->
      <g transform="translate(366.816728 52.751094) scale(0.1 -0.1)">
       <use xlink:href="#DejaVuSans-30"/>
       <use xlink:href="#DejaVuSans-2e" transform="translate(63.623047 0)"/>
       <use xlink:href="#DejaVuSans-30" transform="translate(95.410156 0)"/>
       <use xlink:href="#DejaVuSans-33" transform="translate(159.033203 0)"/>
      </g>
     </g>
    </g>
    <g id="text_25">
     <!-- Average PCM Residuals -->
     <g transform="translate(351.10954 280.754375) rotate(-90) scale(0.16 -0.16)">
      <defs>
       <path id="DejaVuSans-41" d="M 2188 4044 
L 1331 1722 
L 3047 1722 
L 2188 4044 
z
M 1831 4666 
L 2547 4666 
L 4325 0 
L 3669 0 
L 3244 1197 
L 1141 1197 
L 716 0 
L 50 0 
L 1831 4666 
z
" transform="scale(0.015625)"/>
       <path id="DejaVuSans-76" d="M 191 3500 
L 800 3500 
L 1894 563 
L 2988 3500 
L 3597 3500 
L 2284 0 
L 1503 0 
L 191 3500 
z
" transform="scale(0.015625)"/>
       <path id="DejaVuSans-67" d="M 2906 1791 
Q 2906 2416 2648 2759 
Q 2391 3103 1925 3103 
Q 1463 3103 1205 2759 
Q 947 2416 947 1791 
Q 947 1169 1205 825 
Q 1463 481 1925 481 
Q 2391 481 2648 825 
Q 2906 1169 2906 1791 
z
M 3481 434 
Q 3481 -459 3084 -895 
Q 2688 -1331 1869 -1331 
Q 1566 -1331 1297 -1286 
Q 1028 -1241 775 -1147 
L 775 -588 
Q 1028 -725 1275 -790 
Q 1522 -856 1778 -856 
Q 2344 -856 2625 -561 
Q 2906 -266 2906 331 
L 2906 616 
Q 2728 306 2450 153 
Q 2172 0 1784 0 
Q 1141 0 747 490 
Q 353 981 353 1791 
Q 353 2603 747 3093 
Q 1141 3584 1784 3584 
Q 2172 3584 2450 3431 
Q 2728 3278 2906 2969 
L 2906 3500 
L 3481 3500 
L 3481 434 
z
" transform="scale(0.015625)"/>
       <path id="DejaVuSans-4d" d="M 628 4666 
L 1569 4666 
L 2759 1491 
L 3956 4666 
L 4897 4666 
L 4897 0 
L 4281 0 
L 4281 4097 
L 3078 897 
L 2444 897 
L 1241 4097 
L 1241 0 
L 628 0 
L 628 4666 
z
" transform="scale(0.015625)"/>
      </defs>
      <use xlink:href="#DejaVuSans-41"/>
      <use xlink:href="#DejaVuSans-76" transform="translate(62.533203 0)"/>
      <use xlink:href="#DejaVuSans-65" transform="translate(121.712891 0)"/>
      <use xlink:href="#DejaVuSans-72" transform="translate(183.236328 0)"/>
      <use xlink:href="#DejaVuSans-61" transform="translate(224.349609 0)"/>
      <use xlink:href="#DejaVuSans-67" transform="translate(285.628906 0)"/>
      <use xlink:href="#DejaVuSans-65" transform="translate(349.105469 0)"/>
      <use xlink:href="#DejaVuSans-20" transform="translate(410.628906 0)"/>
      <use xlink:href="#DejaVuSans-50" transform="translate(442.416016 0)"/>
      <use xlink:href="#DejaVuSans-43" transform="translate(502.71875 0)"/>
      <use xlink:href="#DejaVuSans-4d" transform="translate(572.542969 0)"/>
      <use xlink:href="#DejaVuSans-20" transform="translate(658.822266 0)"/>
      <use xlink:href="#DejaVuSans-52" transform="translate(690.609375 0)"/>
      <use xlink:href="#DejaVuSans-65" transform="translate(755.591797 0)"/>
      <use xlink:href="#DejaVuSans-73" transform="translate(817.115234 0)"/>
      <use xlink:href="#DejaVuSans-69" transform="translate(869.214844 0)"/>
      <use xlink:href="#DejaVuSans-64" transform="translate(896.998047 0)"/>
      <use xlink:href="#DejaVuSans-75" transform="translate(960.474609 0)"/>
      <use xlink:href="#DejaVuSans-61" transform="translate(1023.853516 0)"/>
      <use xlink:href="#DejaVuSans-6c" transform="translate(1085.132812 0)"/>
      <use xlink:href="#DejaVuSans-73" transform="translate(1112.916016 0)"/>
     </g>
    </g>
   </g>
   <g id="line2d_24">
    <path d="M 420.344283 302.852262 
L 423.082512 296.954711 
L 425.820742 291.176133 
L 428.558972 285.516526 
L 431.297201 279.975891 
L 434.035431 274.554229 
L 436.773661 269.251538 
L 439.51189 264.067819 
L 442.25012 259.003072 
L 444.98835 254.057297 
L 447.726579 249.230495 
L 450.464809 244.522664 
L 453.203039 239.933805 
L 455.941268 235.463918 
L 458.679498 231.113003 
L 461.417728 226.88106 
L 464.155957 222.768089 
L 466.894187 218.77409 
L 469.632417 214.899063 
L 472.370646 211.143008 
L 475.108876 207.505925 
L 477.847106 203.987813 
L 480.585335 200.588674 
L 483.323565 197.308507 
L 486.061795 194.147312 
L 488.800024 191.105089 
L 491.538254 188.181837 
L 494.276484 185.377558 
L 497.014713 182.692251 
L 499.752943 180.125915 
L 502.491173 177.678552 
L 505.229403 175.350161 
L 507.967632 173.140741 
L 510.705862 171.050294 
L 513.444092 169.078818 
L 516.182321 167.226315 
L 518.920551 165.492783 
L 521.658781 163.878224 
L 524.39701 162.382636 
L 527.13524 161.006021 
L 529.87347 159.748377 
L 532.611699 158.609706 
L 535.349929 157.590006 
L 538.088159 156.689278 
L 540.826388 155.907523 
L 543.564618 155.244739 
L 546.302848 154.700927 
L 549.041077 154.276087 
L 551.779307 153.97022 
L 554.517537 153.783324 
L 557.255766 153.7154 
L 559.993996 153.766448 
L 562.732226 153.936468 
L 565.470455 154.22546 
L 568.208685 154.633424 
L 570.946915 155.16036 
L 573.685144 155.806268 
L 576.423374 156.571148 
L 579.161604 157.455 
L 581.899833 158.457824 
L 584.638063 159.57962 
L 587.376293 160.820388 
L 590.114522 162.180128 
L 592.852752 163.65884 
L 595.590982 165.256524 
L 598.329211 166.973179 
L 601.067441 168.808807 
L 603.805671 170.763407 
L 606.543901 172.836979 
L 609.28213 175.029522 
L 612.02036 177.341038 
L 614.75859 179.771526 
L 617.496819 182.320985 
L 620.235049 184.989417 
L 622.973279 187.776821 
L 625.711508 190.683196 
L 628.449738 193.708544 
L 631.187968 196.852863 
L 633.926197 200.116155 
L 636.664427 203.498418 
L 639.402657 206.999654 
L 642.140886 210.619861 
L 644.879116 214.35904 
L 647.617346 218.217192 
L 650.355575 222.194315 
L 653.093805 226.29041 
L 655.832035 230.505478 
L 658.570264 234.839517 
L 661.308494 239.292528 
L 664.046724 243.864511 
L 666.784953 248.555467 
L 669.523183 253.365394 
L 672.261413 258.294293 
L 674.999642 263.342164 
L 677.737872 268.509007 
L 680.476102 273.794822 
L 683.214331 279.199609 
L 685.952561 284.723368 
L 688.690791 290.366099 
L 691.42902 296.127802 
" clip-path="url(#p55dbaed3e0)" style="fill: none; stroke: #b22222; stroke-width: 2; stroke-linecap: square"/>
   </g>
   <g id="patch_6">
    <path d="M 396.082353 326.151875 
L 396.082353 48.951875 
" style="fill: none; stroke: #000000; stroke-width: 0.8; stroke-linejoin: miter; stroke-linecap: square"/>
   </g>
   <g id="patch_7">
    <path d="M 401.082353 331.151875 
L 729.317647 331.151875 
" style="fill: none; stroke: #000000; stroke-width: 0.8; stroke-linejoin: miter; stroke-linecap: square"/>
   </g>
   <g id="text_26">
    <!-- Response Time and -->
    <g transform="translate(467.534375 22.396875) scale(0.2 -0.2)">
     <defs>
      <path id="DejaVuSans-70" d="M 1159 525 
L 1159 -1331 
L 581 -1331 
L 581 3500 
L 1159 3500 
L 1159 2969 
Q 1341 3281 1617 3432 
Q 1894 3584 2278 3584 
Q 2916 3584 3314 3078 
Q 3713 2572 3713 1747 
Q 3713 922 3314 415 
Q 2916 -91 2278 -91 
Q 1894 -91 1617 61 
Q 1341 213 1159 525 
z
M 3116 1747 
Q 3116 2381 2855 2742 
Q 2594 3103 2138 3103 
Q 1681 3103 1420 2742 
Q 1159 2381 1159 1747 
Q 1159 1113 1420 752 
Q 1681 391 2138 391 
Q 2594 391 2855 752 
Q 3116 1113 3116 1747 
z
" transform="scale(0.015625)"/>
      <path id="DejaVuSans-6d" d="M 3328 2828 
Q 3544 3216 3844 3400 
Q 4144 3584 4550 3584 
Q 5097 3584 5394 3201 
Q 5691 2819 5691 2113 
L 5691 0 
L 5113 0 
L 5113 2094 
Q 5113 2597 4934 2840 
Q 4756 3084 4391 3084 
Q 3944 3084 3684 2787 
Q 3425 2491 3425 1978 
L 3425 0 
L 2847 0 
L 2847 2094 
Q 2847 2600 2669 2842 
Q 2491 3084 2119 3084 
Q 1678 3084 1418 2786 
Q 1159 2488 1159 1978 
L 1159 0 
L 581 0 
L 581 3500 
L 1159 3500 
L 1159 2956 
Q 1356 3278 1631 3431 
Q 1906 3584 2284 3584 
Q 2666 3584 2933 3390 
Q 3200 3197 3328 2828 
z
" transform="scale(0.015625)"/>
     </defs>
     <use xlink:href="#DejaVuSans-52"/>
     <use xlink:href="#DejaVuSans-65" transform="translate(64.982422 0)"/>
     <use xlink:href="#DejaVuSans-73" transform="translate(126.505859 0)"/>
     <use xlink:href="#DejaVuSans-70" transform="translate(178.605469 0)"/>
     <use xlink:href="#DejaVuSans-6f" transform="translate(242.082031 0)"/>
     <use xlink:href="#DejaVuSans-6e" transform="translate(303.263672 0)"/>
     <use xlink:href="#DejaVuSans-73" transform="translate(366.642578 0)"/>
     <use xlink:href="#DejaVuSans-65" transform="translate(418.742188 0)"/>
     <use xlink:href="#DejaVuSans-20" transform="translate(480.265625 0)"/>
     <use xlink:href="#DejaVuSans-54" transform="translate(512.052734 0)"/>
     <use xlink:href="#DejaVuSans-69" transform="translate(570.011719 0)"/>
     <use xlink:href="#DejaVuSans-6d" transform="translate(597.794922 0)"/>
     <use xlink:href="#DejaVuSans-65" transform="translate(695.207031 0)"/>
     <use xlink:href="#DejaVuSans-20" transform="translate(756.730469 0)"/>
     <use xlink:href="#DejaVuSans-61" transform="translate(788.517578 0)"/>
     <use xlink:href="#DejaVuSans-6e" transform="translate(849.796875 0)"/>
     <use xlink:href="#DejaVuSans-64" transform="translate(913.175781 0)"/>
    </g>
    <!-- Accuracy Residuals -->
    <g transform="translate(468.925 44.7925) scale(0.2 -0.2)">
     <defs>
      <path id="DejaVuSans-79" d="M 2059 -325 
Q 1816 -950 1584 -1140 
Q 1353 -1331 966 -1331 
L 506 -1331 
L 506 -850 
L 844 -850 
Q 1081 -850 1212 -737 
Q 1344 -625 1503 -206 
L 1606 56 
L 191 3500 
L 800 3500 
L 1894 763 
L 2988 3500 
L 3597 3500 
L 2059 -325 
z
" transform="scale(0.015625)"/>
     </defs>
     <use xlink:href="#DejaVuSans-41"/>
     <use xlink:href="#DejaVuSans-63" transform="translate(66.658203 0)"/>
     <use xlink:href="#DejaVuSans-63" transform="translate(121.638672 0)"/>
     <use xlink:href="#DejaVuSans-75" transform="translate(176.619141 0)"/>
     <use xlink:href="#DejaVuSans-72" transform="translate(239.998047 0)"/>
     <use xlink:href="#DejaVuSans-61" transform="translate(281.111328 0)"/>
     <use xlink:href="#DejaVuSans-63" transform="translate(342.390625 0)"/>
     <use xlink:href="#DejaVuSans-79" transform="translate(397.371094 0)"/>
     <use xlink:href="#DejaVuSans-20" transform="translate(456.550781 0)"/>
     <use xlink:href="#DejaVuSans-52" transform="translate(488.337891 0)"/>
     <use xlink:href="#DejaVuSans-65" transform="translate(553.320312 0)"/>
     <use xlink:href="#DejaVuSans-73" transform="translate(614.84375 0)"/>
     <use xlink:href="#DejaVuSans-69" transform="translate(666.943359 0)"/>
     <use xlink:href="#DejaVuSans-64" transform="translate(694.726562 0)"/>
     <use xlink:href="#DejaVuSans-75" transform="translate(758.203125 0)"/>
     <use xlink:href="#DejaVuSans-61" transform="translate(821.582031 0)"/>
     <use xlink:href="#DejaVuSans-6c" transform="translate(882.861328 0)"/>
     <use xlink:href="#DejaVuSans-73" transform="translate(910.644531 0)"/>
    </g>
   </g>
  </g>
  <g id="axes_3">
   <g id="patch_8">
    <path d="M 794.964706 326.151875 
L 1123.2 326.151875 
L 1123.2 48.951875 
L 794.964706 48.951875 
z
" style="fill: #ffffff"/>
   </g>
   <g id="PathCollection_2">
    <g clip-path="url(#pa70fcbf27b)">
     <use xlink:href="#mbe7c67b7d4" x="801.079446" y="84.208357" style="fill: #ffffff; fill-opacity: 0.8; stroke: #000000; stroke-opacity: 0.8"/>
     <use xlink:href="#mbe7c67b7d4" x="837.888139" y="117.941828" style="fill: #ffffff; fill-opacity: 0.8; stroke: #000000; stroke-opacity: 0.8"/>
     <use xlink:href="#mbe7c67b7d4" x="856.526669" y="197.656495" style="fill: #ffffff; fill-opacity: 0.8; stroke: #000000; stroke-opacity: 0.8"/>
     <use xlink:href="#mbe7c67b7d4" x="868.428277" y="209.455805" style="fill: #ffffff; fill-opacity: 0.8; stroke: #000000; stroke-opacity: 0.8"/>
     <use xlink:href="#mbe7c67b7d4" x="878.175737" y="291.729204" style="fill: #ffffff; fill-opacity: 0.8; stroke: #000000; stroke-opacity: 0.8"/>
     <use xlink:href="#mbe7c67b7d4" x="888.173369" y="234.982029" style="fill: #ffffff; fill-opacity: 0.8; stroke: #000000; stroke-opacity: 0.8"/>
     <use xlink:href="#mbe7c67b7d4" x="897.00324" y="272.117998" style="fill: #ffffff; fill-opacity: 0.8; stroke: #000000; stroke-opacity: 0.8"/>
     <use xlink:href="#mbe7c67b7d4" x="905.104277" y="152.735922" style="fill: #ffffff; fill-opacity: 0.8; stroke: #000000; stroke-opacity: 0.8"/>
     <use xlink:href="#mbe7c67b7d4" x="922.645259" y="235.37433" style="fill: #ffffff; fill-opacity: 0.8; stroke: #000000; stroke-opacity: 0.8"/>
     <use xlink:href="#mbe7c67b7d4" x="956.063933" y="235.304361" style="fill: #ffffff; fill-opacity: 0.8; stroke: #000000; stroke-opacity: 0.8"/>
     <use xlink:href="#mbe7c67b7d4" x="971.085296" y="242.82332" style="fill: #ffffff; fill-opacity: 0.8; stroke: #000000; stroke-opacity: 0.8"/>
     <use xlink:href="#mbe7c67b7d4" x="989.845677" y="128.46737" style="fill: #ffffff; fill-opacity: 0.8; stroke: #000000; stroke-opacity: 0.8"/>
     <use xlink:href="#mbe7c67b7d4" x="1006.176816" y="101.262769" style="fill: #ffffff; fill-opacity: 0.8; stroke: #000000; stroke-opacity: 0.8"/>
     <use xlink:href="#mbe7c67b7d4" x="1026.611579" y="81.870579" style="fill: #ffffff; fill-opacity: 0.8; stroke: #000000; stroke-opacity: 0.8"/>
     <use xlink:href="#mbe7c67b7d4" x="1088.449521" y="200.076361" style="fill: #ffffff; fill-opacity: 0.8; stroke: #000000; stroke-opacity: 0.8"/>
    </g>
   </g>
   <g id="matplotlib.axis_4">
    <g id="xtick_14">
     <g id="line2d_25">
      <g>
       <use xlink:href="#m67db13d0a9" x="794.964706" y="331.151875" style="stroke: #000000; stroke-width: 0.8"/>
      </g>
     </g>
     <g id="text_27">
      <!-- −1.0 -->
      <g transform="translate(782.8233 345.750312) scale(0.1 -0.1)">
       <use xlink:href="#DejaVuSans-2212"/>
       <use xlink:href="#DejaVuSans-31" transform="translate(83.789062 0)"/>
       <use xlink:href="#DejaVuSans-2e" transform="translate(147.412109 0)"/>
       <use xlink:href="#DejaVuSans-30" transform="translate(179.199219 0)"/>
      </g>
     </g>
    </g>
    <g id="xtick_15">
     <g id="line2d_26">
      <g>
       <use xlink:href="#m67db13d0a9" x="860.611765" y="331.151875" style="stroke: #000000; stroke-width: 0.8"/>
      </g>
     </g>
     <g id="text_28">
      <!-- −0.5 -->
      <g transform="translate(848.470358 345.750312) scale(0.1 -0.1)">
       <use xlink:href="#DejaVuSans-2212"/>
       <use xlink:href="#DejaVuSans-30" transform="translate(83.789062 0)"/>
       <use xlink:href="#DejaVuSans-2e" transform="translate(147.412109 0)"/>
       <use xlink:href="#DejaVuSans-35" transform="translate(179.199219 0)"/>
      </g>
     </g>
    </g>
    <g id="xtick_16">
     <g id="line2d_27">
      <g>
       <use xlink:href="#m67db13d0a9" x="926.258824" y="331.151875" style="stroke: #000000; stroke-width: 0.8"/>
      </g>
     </g>
     <g id="text_29">
      <!-- 0.0 -->
      <g transform="translate(918.307261 345.750312) scale(0.1 -0.1)">
       <use xlink:href="#DejaVuSans-30"/>
       <use xlink:href="#DejaVuSans-2e" transform="translate(63.623047 0)"/>
       <use xlink:href="#DejaVuSans-30" transform="translate(95.410156 0)"/>
      </g>
     </g>
    </g>
    <g id="xtick_17">
     <g id="line2d_28">
      <g>
       <use xlink:href="#m67db13d0a9" x="991.905882" y="331.151875" style="stroke: #000000; stroke-width: 0.8"/>
      </g>
     </g>
     <g id="text_30">
      <!-- 0.5 -->
      <g transform="translate(983.95432 345.750312) scale(0.1 -0.1)">
       <use xlink:href="#DejaVuSans-30"/>
       <use xlink:href="#DejaVuSans-2e" transform="translate(63.623047 0)"/>
       <use xlink:href="#DejaVuSans-35" transform="translate(95.410156 0)"/>
      </g>
     </g>
    </g>
    <g id="xtick_18">
     <g id="line2d_29">
      <g>
       <use xlink:href="#m67db13d0a9" x="1057.552941" y="331.151875" style="stroke: #000000; stroke-width: 0.8"/>
      </g>
     </g>
     <g id="text_31">
      <!-- 1.0 -->
      <g transform="translate(1049.601379 345.750312) scale(0.1 -0.1)">
       <use xlink:href="#DejaVuSans-31"/>
       <use xlink:href="#DejaVuSans-2e" transform="translate(63.623047 0)"/>
       <use xlink:href="#DejaVuSans-30" transform="translate(95.410156 0)"/>
      </g>
     </g>
    </g>
    <g id="xtick_19">
     <g id="line2d_30">
      <g>
       <use xlink:href="#m67db13d0a9" x="1123.2" y="331.151875" style="stroke: #000000; stroke-width: 0.8"/>
      </g>
     </g>
     <g id="text_32">
      <!-- 1.5 -->
      <g transform="translate(1115.248438 345.750312) scale(0.1 -0.1)">
       <use xlink:href="#DejaVuSans-31"/>
       <use xlink:href="#DejaVuSans-2e" transform="translate(63.623047 0)"/>
       <use xlink:href="#DejaVuSans-35" transform="translate(95.410156 0)"/>
      </g>
     </g>
    </g>
    <g id="text_33">
     <!-- PCM Binned Residuals -->
     <g transform="translate(870.879853 363.9875) scale(0.16 -0.16)">
      <use xlink:href="#DejaVuSans-50"/>
      <use xlink:href="#DejaVuSans-43" transform="translate(60.302734 0)"/>
      <use xlink:href="#DejaVuSans-4d" transform="translate(130.126953 0)"/>
      <use xlink:href="#DejaVuSans-20" transform="translate(216.40625 0)"/>
      <use xlink:href="#DejaVuSans-42" transform="translate(248.193359 0)"/>
      <use xlink:href="#DejaVuSans-69" transform="translate(316.796875 0)"/>
      <use xlink:href="#DejaVuSans-6e" transform="translate(344.580078 0)"/>
      <use xlink:href="#DejaVuSans-6e" transform="translate(407.958984 0)"/>
      <use xlink:href="#DejaVuSans-65" transform="translate(471.337891 0)"/>
      <use xlink:href="#DejaVuSans-64" transform="translate(532.861328 0)"/>
      <use xlink:href="#DejaVuSans-20" transform="translate(596.337891 0)"/>
      <use xlink:href="#DejaVuSans-52" transform="translate(628.125 0)"/>
      <use xlink:href="#DejaVuSans-65" transform="translate(693.107422 0)"/>
      <use xlink:href="#DejaVuSans-73" transform="translate(754.630859 0)"/>
      <use xlink:href="#DejaVuSans-69" transform="translate(806.730469 0)"/>
      <use xlink:href="#DejaVuSans-64" transform="translate(834.513672 0)"/>
      <use xlink:href="#DejaVuSans-75" transform="translate(897.990234 0)"/>
      <use xlink:href="#DejaVuSans-61" transform="translate(961.369141 0)"/>
      <use xlink:href="#DejaVuSans-6c" transform="translate(1022.648438 0)"/>
      <use xlink:href="#DejaVuSans-73" transform="translate(1050.431641 0)"/>
     </g>
    </g>
   </g>
   <g id="matplotlib.axis_5">
    <g id="ytick_8">
     <g id="line2d_31">
      <g>
       <use xlink:href="#m1861579098" x="789.964706" y="326.151875" style="stroke: #000000; stroke-width: 0.8"/>
      </g>
     </g>
     <g id="text_34">
      <!-- −0.3 -->
      <g transform="translate(758.681893 329.951094) scale(0.1 -0.1)">
       <use xlink:href="#DejaVuSans-2212"/>
       <use xlink:href="#DejaVuSans-30" transform="translate(83.789062 0)"/>
       <use xlink:href="#DejaVuSans-2e" transform="translate(147.412109 0)"/>
       <use xlink:href="#DejaVuSans-33" transform="translate(179.199219 0)"/>
      </g>
     </g>
    </g>
    <g id="ytick_9">
     <g id="line2d_32">
      <g>
       <use xlink:href="#m1861579098" x="789.964706" y="286.551875" style="stroke: #000000; stroke-width: 0.8"/>
      </g>
     </g>
     <g id="text_35">
      <!-- −0.2 -->
      <g transform="translate(758.681893 290.351094) scale(0.1 -0.1)">
       <use xlink:href="#DejaVuSans-2212"/>
       <use xlink:href="#DejaVuSans-30" transform="translate(83.789062 0)"/>
       <use xlink:href="#DejaVuSans-2e" transform="translate(147.412109 0)"/>
       <use xlink:href="#DejaVuSans-32" transform="translate(179.199219 0)"/>
      </g>
     </g>
    </g>
    <g id="ytick_10">
     <g id="line2d_33">
      <g>
       <use xlink:href="#m1861579098" x="789.964706" y="246.951875" style="stroke: #000000; stroke-width: 0.8"/>
      </g>
     </g>
     <g id="text_36">
      <!-- −0.1 -->
      <g transform="translate(758.681893 250.751094) scale(0.1 -0.1)">
       <use xlink:href="#DejaVuSans-2212"/>
       <use xlink:href="#DejaVuSans-30" transform="translate(83.789062 0)"/>
       <use xlink:href="#DejaVuSans-2e" transform="translate(147.412109 0)"/>
       <use xlink:href="#DejaVuSans-31" transform="translate(179.199219 0)"/>
      </g>
     </g>
    </g>
    <g id="ytick_11">
     <g id="line2d_34">
      <g>
       <use xlink:href="#m1861579098" x="789.964706" y="207.351875" style="stroke: #000000; stroke-width: 0.8"/>
      </g>
     </g>
     <g id="text_37">
      <!-- 0.0 -->
      <g transform="translate(767.061581 211.151094) scale(0.1 -0.1)">
       <use xlink:href="#DejaVuSans-30"/>
       <use xlink:href="#DejaVuSans-2e" transform="translate(63.623047 0)"/>
       <use xlink:href="#DejaVuSans-30" transform="translate(95.410156 0)"/>
      </g>
     </g>
    </g>
    <g id="ytick_12">
     <g id="line2d_35">
      <g>
       <use xlink:href="#m1861579098" x="789.964706" y="167.751875" style="stroke: #000000; stroke-width: 0.8"/>
      </g>
     </g>
     <g id="text_38">
      <!-- 0.1 -->
      <g transform="translate(767.061581 171.551094) scale(0.1 -0.1)">
       <use xlink:href="#DejaVuSans-30"/>
       <use xlink:href="#DejaVuSans-2e" transform="translate(63.623047 0)"/>
       <use xlink:href="#DejaVuSans-31" transform="translate(95.410156 0)"/>
      </g>
     </g>
    </g>
    <g id="ytick_13">
     <g id="line2d_36">
      <g>
       <use xlink:href="#m1861579098" x="789.964706" y="128.151875" style="stroke: #000000; stroke-width: 0.8"/>
      </g>
     </g>
     <g id="text_39">
      <!-- 0.2 -->
      <g transform="translate(767.061581 131.951094) scale(0.1 -0.1)">
       <use xlink:href="#DejaVuSans-30"/>
       <use xlink:href="#DejaVuSans-2e" transform="translate(63.623047 0)"/>
       <use xlink:href="#DejaVuSans-32" transform="translate(95.410156 0)"/>
      </g>
     </g>
    </g>
    <g id="ytick_14">
     <g id="line2d_37">
      <g>
       <use xlink:href="#m1861579098" x="789.964706" y="88.551875" style="stroke: #000000; stroke-width: 0.8"/>
      </g>
     </g>
     <g id="text_40">
      <!-- 0.3 -->
      <g transform="translate(767.061581 92.351094) scale(0.1 -0.1)">
       <use xlink:href="#DejaVuSans-30"/>
       <use xlink:href="#DejaVuSans-2e" transform="translate(63.623047 0)"/>
       <use xlink:href="#DejaVuSans-33" transform="translate(95.410156 0)"/>
      </g>
     </g>
    </g>
    <g id="ytick_15">
     <g id="line2d_38">
      <g>
       <use xlink:href="#m1861579098" x="789.964706" y="48.951875" style="stroke: #000000; stroke-width: 0.8"/>
      </g>
     </g>
     <g id="text_41">
      <!-- 0.4 -->
      <g transform="translate(767.061581 52.751094) scale(0.1 -0.1)">
       <use xlink:href="#DejaVuSans-30"/>
       <use xlink:href="#DejaVuSans-2e" transform="translate(63.623047 0)"/>
       <use xlink:href="#DejaVuSans-34" transform="translate(95.410156 0)"/>
      </g>
     </g>
    </g>
    <g id="text_42">
     <!-- Average ZINB Residuals -->
     <g transform="translate(751.354393 282.755625) rotate(-90) scale(0.16 -0.16)">
      <use xlink:href="#DejaVuSans-41"/>
      <use xlink:href="#DejaVuSans-76" transform="translate(62.533203 0)"/>
      <use xlink:href="#DejaVuSans-65" transform="translate(121.712891 0)"/>
      <use xlink:href="#DejaVuSans-72" transform="translate(183.236328 0)"/>
      <use xlink:href="#DejaVuSans-61" transform="translate(224.349609 0)"/>
      <use xlink:href="#DejaVuSans-67" transform="translate(285.628906 0)"/>
      <use xlink:href="#DejaVuSans-65" transform="translate(349.105469 0)"/>
      <use xlink:href="#DejaVuSans-20" transform="translate(410.628906 0)"/>
      <use xlink:href="#DejaVuSans-5a" transform="translate(442.416016 0)"/>
      <use xlink:href="#DejaVuSans-49" transform="translate(510.921875 0)"/>
      <use xlink:href="#DejaVuSans-4e" transform="translate(540.414062 0)"/>
      <use xlink:href="#DejaVuSans-42" transform="translate(615.21875 0)"/>
      <use xlink:href="#DejaVuSans-20" transform="translate(683.822266 0)"/>
      <use xlink:href="#DejaVuSans-52" transform="translate(715.609375 0)"/>
      <use xlink:href="#DejaVuSans-65" transform="translate(780.591797 0)"/>
      <use xlink:href="#DejaVuSans-73" transform="translate(842.115234 0)"/>
      <use xlink:href="#DejaVuSans-69" transform="translate(894.214844 0)"/>
      <use xlink:href="#DejaVuSans-64" transform="translate(921.998047 0)"/>
      <use xlink:href="#DejaVuSans-75" transform="translate(985.474609 0)"/>
      <use xlink:href="#DejaVuSans-61" transform="translate(1048.853516 0)"/>
      <use xlink:href="#DejaVuSans-6c" transform="translate(1110.132812 0)"/>
      <use xlink:href="#DejaVuSans-73" transform="translate(1137.916016 0)"/>
     </g>
    </g>
   </g>
   <g id="line2d_39">
    <path d="M 801.079446 135.649641 
L 803.982174 138.920239 
L 806.884902 142.118093 
L 809.78763 145.243204 
L 812.690358 148.295572 
L 815.593086 151.275198 
L 818.495814 154.18208 
L 821.398542 157.01622 
L 824.30127 159.777616 
L 827.203998 162.46627 
L 830.106726 165.082181 
L 833.009455 167.625348 
L 835.912183 170.095773 
L 838.814911 172.493455 
L 841.717639 174.818394 
L 844.620367 177.07059 
L 847.523095 179.250044 
L 850.425823 181.356754 
L 853.328551 183.390721 
L 856.231279 185.351946 
L 859.134007 187.240427 
L 862.036735 189.056166 
L 864.939463 190.799161 
L 867.842191 192.469414 
L 870.744919 194.066924 
L 873.647647 195.591691 
L 876.550375 197.043715 
L 879.453103 198.422996 
L 882.355831 199.729534 
L 885.258559 200.963329 
L 888.161287 202.124381 
L 891.064015 203.21269 
L 893.966743 204.228257 
L 896.869471 205.17108 
L 899.772199 206.041161 
L 902.674927 206.838499 
L 905.577655 207.563093 
L 908.480383 208.214945 
L 911.383111 208.794054 
L 914.285839 209.30042 
L 917.188567 209.734043 
L 920.091295 210.094923 
L 922.994023 210.38306 
L 925.896751 210.598454 
L 928.79948 210.741105 
L 931.702208 210.811014 
L 934.604936 210.808179 
L 937.507664 210.732602 
L 940.410392 210.584281 
L 943.31312 210.363218 
L 946.215848 210.069412 
L 949.118576 209.702863 
L 952.021304 209.263571 
L 954.924032 208.751536 
L 957.82676 208.166758 
L 960.729488 207.509237 
L 963.632216 206.778973 
L 966.534944 205.975966 
L 969.437672 205.100217 
L 972.3404 204.151724 
L 975.243128 203.130488 
L 978.145856 202.03651 
L 981.048584 200.869789 
L 983.951312 199.630324 
L 986.85404 198.318117 
L 989.756768 196.933167 
L 992.659496 195.475474 
L 995.562224 193.945038 
L 998.464952 192.341859 
L 1001.36768 190.665937 
L 1004.270408 188.917273 
L 1007.173136 187.095865 
L 1010.075864 185.201714 
L 1012.978592 183.234821 
L 1015.88132 181.195184 
L 1018.784048 179.082805 
L 1021.686776 176.897683 
L 1024.589505 174.639817 
L 1027.492233 172.309209 
L 1030.394961 169.905858 
L 1033.297689 167.429764 
L 1036.200417 164.880927 
L 1039.103145 162.259347 
L 1042.005873 159.565025 
L 1044.908601 156.797959 
L 1047.811329 153.95815 
L 1050.714057 151.045599 
L 1053.616785 148.060304 
L 1056.519513 145.002267 
L 1059.422241 141.871487 
L 1062.324969 138.667963 
L 1065.227697 135.391697 
L 1068.130425 132.042688 
L 1071.033153 128.620936 
L 1073.935881 125.126441 
L 1076.838609 121.559203 
L 1079.741337 117.919222 
L 1082.644065 114.206499 
L 1085.546793 110.421032 
L 1088.449521 106.562822 
" clip-path="url(#pa70fcbf27b)" style="fill: none; stroke: #b22222; stroke-width: 2; stroke-linecap: square"/>
   </g>
   <g id="patch_9">
    <path d="M 789.964706 326.151875 
L 789.964706 48.951875 
" style="fill: none; stroke: #000000; stroke-width: 0.8; stroke-linejoin: miter; stroke-linecap: square"/>
   </g>
   <g id="patch_10">
    <path d="M 794.964706 331.151875 
L 1123.2 331.151875 
" style="fill: none; stroke: #000000; stroke-width: 0.8; stroke-linejoin: miter; stroke-linecap: square"/>
   </g>
   <g id="text_43">
    <!-- Process Counts and -->
    <g transform="translate(861.076103 22.396875) scale(0.2 -0.2)">
     <use xlink:href="#DejaVuSans-50"/>
     <use xlink:href="#DejaVuSans-72" transform="translate(58.552734 0)"/>
     <use xlink:href="#DejaVuSans-6f" transform="translate(97.416016 0)"/>
     <use xlink:href="#DejaVuSans-63" transform="translate(158.597656 0)"/>
     <use xlink:href="#DejaVuSans-65" transform="translate(213.578125 0)"/>
     <use xlink:href="#DejaVuSans-73" transform="translate(275.101562 0)"/>
     <use xlink:href="#DejaVuSans-73" transform="translate(327.201172 0)"/>
     <use xlink:href="#DejaVuSans-20" transform="translate(379.300781 0)"/>
     <use xlink:href="#DejaVuSans-43" transform="translate(411.087891 0)"/>
     <use xlink:href="#DejaVuSans-6f" transform="translate(480.912109 0)"/>
     <use xlink:href="#DejaVuSans-75" transform="translate(542.09375 0)"/>
     <use xlink:href="#DejaVuSans-6e" transform="translate(605.472656 0)"/>
     <use xlink:href="#DejaVuSans-74" transform="translate(668.851562 0)"/>
     <use xlink:href="#DejaVuSans-73" transform="translate(708.060547 0)"/>
     <use xlink:href="#DejaVuSans-20" transform="translate(760.160156 0)"/>
     <use xlink:href="#DejaVuSans-61" transform="translate(791.947266 0)"/>
     <use xlink:href="#DejaVuSans-6e" transform="translate(853.226562 0)"/>
     <use xlink:href="#DejaVuSans-64" transform="translate(916.605469 0)"/>
    </g>
    <!-- Accuracy Residuals -->
    <g transform="translate(862.807353 44.7925) scale(0.2 -0.2)">
     <use xlink:href="#DejaVuSans-41"/>
     <use xlink:href="#DejaVuSans-63" transform="translate(66.658203 0)"/>
     <use xlink:href="#DejaVuSans-63" transform="translate(121.638672 0)"/>
     <use xlink:href="#DejaVuSans-75" transform="translate(176.619141 0)"/>
     <use xlink:href="#DejaVuSans-72" transform="translate(239.998047 0)"/>
     <use xlink:href="#DejaVuSans-61" transform="translate(281.111328 0)"/>
     <use xlink:href="#DejaVuSans-63" transform="translate(342.390625 0)"/>
     <use xlink:href="#DejaVuSans-79" transform="translate(397.371094 0)"/>
     <use xlink:href="#DejaVuSans-20" transform="translate(456.550781 0)"/>
     <use xlink:href="#DejaVuSans-52" transform="translate(488.337891 0)"/>
     <use xlink:href="#DejaVuSans-65" transform="translate(553.320312 0)"/>
     <use xlink:href="#DejaVuSans-73" transform="translate(614.84375 0)"/>
     <use xlink:href="#DejaVuSans-69" transform="translate(666.943359 0)"/>
     <use xlink:href="#DejaVuSans-64" transform="translate(694.726562 0)"/>
     <use xlink:href="#DejaVuSans-75" transform="translate(758.203125 0)"/>
     <use xlink:href="#DejaVuSans-61" transform="translate(821.582031 0)"/>
     <use xlink:href="#DejaVuSans-6c" transform="translate(882.861328 0)"/>
     <use xlink:href="#DejaVuSans-73" transform="translate(910.644531 0)"/>
    </g>
   </g>
  </g>
 </g>
 <defs>
  <clipPath id="p7fe4c7564d">
   <rect x="7.2" y="48.951875" width="328.235294" height="277.2"/>
  </clipPath>
  <clipPath id="p55dbaed3e0">
   <rect x="401.082353" y="48.951875" width="328.235294" height="277.2"/>
  </clipPath>
  <clipPath id="pa70fcbf27b">
   <rect x="794.964706" y="48.951875" width="328.235294" height="277.2"/>
  </clipPath>
 </defs>
</svg>
