<?xml version="1.0" encoding="utf-8" standalone="no"?>
<!DOCTYPE svg PUBLIC "-//W3C//DTD SVG 1.1//EN"
  "http://www.w3.org/Graphics/SVG/1.1/DTD/svg11.dtd">
<svg xmlns:xlink="http://www.w3.org/1999/xlink" width="460.8pt" height="309.7575pt" viewBox="0 0 460.8 309.7575" xmlns="http://www.w3.org/2000/svg" version="1.1">
 <metadata>
  <rdf:RDF xmlns:dc="http://purl.org/dc/elements/1.1/" xmlns:cc="http://creativecommons.org/ns#" xmlns:rdf="http://www.w3.org/1999/02/22-rdf-syntax-ns#">
   <cc:Work>
    <dc:type rdf:resource="http://purl.org/dc/dcmitype/StillImage"/>
    <dc:date>2025-10-04T11:29:21.267044</dc:date>
    <dc:format>image/svg+xml</dc:format>
    <dc:creator>
     <cc:Agent>
      <dc:title>Matplotlib v3.10.5, https://matplotlib.org/</dc:title>
     </cc:Agent>
    </dc:creator>
   </cc:Work>
  </rdf:RDF>
 </metadata>
 <defs>
  <style type="text/css">*{stroke-linejoin: round; stroke-linecap: butt}</style>
 </defs>
 <g id="figure_1">
  <g id="patch_1">
   <path d="M 0 309.7575 
L 460.8 309.7575 
L 460.8 0 
L 0 0 
z
" style="fill: #ffffff"/>
  </g>
  <g id="axes_1">
   <g id="patch_2">
    <path d="M 7.2 302.5575 
L 453.6 302.5575 
L 453.6 25.3575 
L 7.2 25.3575 
z
" style="fill: #ffffff"/>
   </g>
   <g id="line2d_1">
    <path d="M 308.036946 107.630109 
L 260.516491 141.129671 
" clip-path="url(#p12f882fe82)" style="fill: none; stroke-dasharray: 5.55,2.4; stroke-dashoffset: 0; stroke: #808080; stroke-width: 1.5"/>
   </g>
   <g id="line2d_2">
    <path d="M 345.667999 109.282363 
L 272.087087 142.19114 
" clip-path="url(#p12f882fe82)" style="fill: none; stroke-dasharray: 5.55,2.4; stroke-dashoffset: 0; stroke: #808080; stroke-width: 1.5"/>
   </g>
   <g id="line2d_3">
    <path d="M 309.986141 110.681909 
L 269.111936 137.825148 
" clip-path="url(#p12f882fe82)" style="fill: none; stroke-dasharray: 5.55,2.4; stroke-dashoffset: 0; stroke: #808080; stroke-width: 1.5"/>
   </g>
   <g id="line2d_4">
    <path d="M 407.105649 57.318369 
L 260.501068 141.535252 
" clip-path="url(#p12f882fe82)" style="fill: none; stroke-dasharray: 5.55,2.4; stroke-dashoffset: 0; stroke: #808080; stroke-width: 1.5"/>
   </g>
   <g id="line2d_5">
    <path d="M 374.481834 63.393648 
L 259.094136 139.138195 
" clip-path="url(#p12f882fe82)" style="fill: none; stroke-dasharray: 5.55,2.4; stroke-dashoffset: 0; stroke: #808080; stroke-width: 1.5"/>
   </g>
   <g id="line2d_6">
    <path d="M 275.699369 172.070324 
L 277.601716 171.451589 
" clip-path="url(#p12f882fe82)" style="fill: none; stroke-dasharray: 5.55,2.4; stroke-dashoffset: 0; stroke: #808080; stroke-width: 1.5"/>
   </g>
   <g id="line2d_7">
    <path d="M 232.870495 162.327989 
L 347.164812 183.251944 
" clip-path="url(#p12f882fe82)" style="fill: none; stroke-dasharray: 5.55,2.4; stroke-dashoffset: 0; stroke: #808080; stroke-width: 1.5"/>
   </g>
   <g id="line2d_8">
    <path d="M 358.125182 221.043757 
L 357.710954 190.926682 
" clip-path="url(#p12f882fe82)" style="fill: none; stroke-dasharray: 5.55,2.4; stroke-dashoffset: 0; stroke: #808080; stroke-width: 1.5"/>
   </g>
   <g id="line2d_9">
    <path d="M 198.235741 282.477131 
L 255.061416 256.303393 
" clip-path="url(#p12f882fe82)" style="fill: none; stroke-dasharray: 5.55,2.4; stroke-dashoffset: 0; stroke: #808080; stroke-width: 1.5"/>
   </g>
   <g id="line2d_10">
    <path d="M 260.870262 279.709372 
L 320.999463 241.355602 
" clip-path="url(#p12f882fe82)" style="fill: none; stroke-dasharray: 5.55,2.4; stroke-dashoffset: 0; stroke: #808080; stroke-width: 1.5"/>
   </g>
   <g id="line2d_11">
    <path d="M 171.226084 160.172809 
L 195.265578 157.796461 
" clip-path="url(#p12f882fe82)" style="fill: none; stroke-dasharray: 5.55,2.4; stroke-dashoffset: 0; stroke: #808080; stroke-width: 1.5"/>
   </g>
   <g id="line2d_12">
    <path d="M 224.711649 154.103476 
L 233.681468 153.372487 
" clip-path="url(#p12f882fe82)" style="fill: none; stroke-dasharray: 5.55,2.4; stroke-dashoffset: 0; stroke: #808080; stroke-width: 1.5"/>
   </g>
   <g id="line2d_13">
    <path d="M 189.099689 139.041462 
L 228.730667 139.289155 
" clip-path="url(#p12f882fe82)" style="fill: none; stroke-dasharray: 5.55,2.4; stroke-dashoffset: 0; stroke: #808080; stroke-width: 1.5"/>
   </g>
   <g id="line2d_14">
    <path d="M 205.182222 143.165241 
L 209.624353 134.140372 
" clip-path="url(#p12f882fe82)" style="fill: none; stroke-dasharray: 5.55,2.4; stroke-dashoffset: 0; stroke: #808080; stroke-width: 1.5"/>
   </g>
   <g id="line2d_15">
    <path d="M 215.222356 143.344853 
L 233.876006 139.430027 
" clip-path="url(#p12f882fe82)" style="fill: none; stroke-dasharray: 5.55,2.4; stroke-dashoffset: 0; stroke: #808080; stroke-width: 1.5"/>
   </g>
   <g id="line2d_16">
    <path d="M 213.95749 150.806781 
L 225.478597 149.513399 
" clip-path="url(#p12f882fe82)" style="fill: none; stroke-dasharray: 5.55,2.4; stroke-dashoffset: 0; stroke: #808080; stroke-width: 1.5"/>
   </g>
   <g id="line2d_17">
    <path d="M 169.754891 141.578971 
L 125.553211 136.264439 
" clip-path="url(#p12f882fe82)" style="fill: none; stroke-dasharray: 5.55,2.4; stroke-dashoffset: 0; stroke: #808080; stroke-width: 1.5"/>
   </g>
   <g id="line2d_18">
    <path d="M 206.230708 140.856043 
L 181.49402 72.705194 
" clip-path="url(#p12f882fe82)" style="fill: none; stroke-dasharray: 5.55,2.4; stroke-dashoffset: 0; stroke: #808080; stroke-width: 1.5"/>
   </g>
   <g id="line2d_19">
    <path d="M 99.91602 108.467526 
L 160.914731 100.014372 
" clip-path="url(#p12f882fe82)" style="fill: none; stroke-dasharray: 5.55,2.4; stroke-dashoffset: 0; stroke: #808080; stroke-width: 1.5"/>
   </g>
   <g id="line2d_20">
    <path d="M 60.011176 127.417153 
L 112.36681 114.502009 
" clip-path="url(#p12f882fe82)" style="fill: none; stroke-dasharray: 5.55,2.4; stroke-dashoffset: 0; stroke: #808080; stroke-width: 1.5"/>
   </g>
   <g id="line2d_21">
    <path d="M 61.855237 110.356979 
L 128.423881 94.54785 
" clip-path="url(#p12f882fe82)" style="fill: none; stroke-dasharray: 5.55,2.4; stroke-dashoffset: 0; stroke: #808080; stroke-width: 1.5"/>
   </g>
   <g id="line2d_22">
    <path d="M 180.552858 140.668737 
L 153.541597 89.230618 
" clip-path="url(#p12f882fe82)" style="fill: none; stroke-dasharray: 5.55,2.4; stroke-dashoffset: 0; stroke: #808080; stroke-width: 1.5"/>
   </g>
   <g id="matplotlib.axis_1">
    <g id="xtick_1">
     <g id="line2d_23">
      <path d="M 39.085714 302.5575 
L 39.085714 25.3575 
" clip-path="url(#p12f882fe82)" style="fill: none; stroke-dasharray: 0.8,1.32; stroke-dashoffset: 0; stroke: #b0b0b0; stroke-width: 0.8"/>
     </g>
     <g id="line2d_24"/>
    </g>
    <g id="xtick_2">
     <g id="line2d_25">
      <path d="M 102.857143 302.5575 
L 102.857143 25.3575 
" clip-path="url(#p12f882fe82)" style="fill: none; stroke-dasharray: 0.8,1.32; stroke-dashoffset: 0; stroke: #b0b0b0; stroke-width: 0.8"/>
     </g>
     <g id="line2d_26"/>
    </g>
    <g id="xtick_3">
     <g id="line2d_27">
      <path d="M 166.628571 302.5575 
L 166.628571 25.3575 
" clip-path="url(#p12f882fe82)" style="fill: none; stroke-dasharray: 0.8,1.32; stroke-dashoffset: 0; stroke: #b0b0b0; stroke-width: 0.8"/>
     </g>
     <g id="line2d_28"/>
    </g>
    <g id="xtick_4">
     <g id="line2d_29">
      <path d="M 230.4 302.5575 
L 230.4 25.3575 
" clip-path="url(#p12f882fe82)" style="fill: none; stroke-dasharray: 0.8,1.32; stroke-dashoffset: 0; stroke: #b0b0b0; stroke-width: 0.8"/>
     </g>
     <g id="line2d_30"/>
    </g>
    <g id="xtick_5">
     <g id="line2d_31">
      <path d="M 294.171429 302.5575 
L 294.171429 25.3575 
" clip-path="url(#p12f882fe82)" style="fill: none; stroke-dasharray: 0.8,1.32; stroke-dashoffset: 0; stroke: #b0b0b0; stroke-width: 0.8"/>
     </g>
     <g id="line2d_32"/>
    </g>
    <g id="xtick_6">
     <g id="line2d_33">
      <path d="M 357.942857 302.5575 
L 357.942857 25.3575 
" clip-path="url(#p12f882fe82)" style="fill: none; stroke-dasharray: 0.8,1.32; stroke-dashoffset: 0; stroke: #b0b0b0; stroke-width: 0.8"/>
     </g>
     <g id="line2d_34"/>
    </g>
    <g id="xtick_7">
     <g id="line2d_35">
      <path d="M 421.714286 302.5575 
L 421.714286 25.3575 
" clip-path="url(#p12f882fe82)" style="fill: none; stroke-dasharray: 0.8,1.32; stroke-dashoffset: 0; stroke: #b0b0b0; stroke-width: 0.8"/>
     </g>
     <g id="line2d_36"/>
    </g>
   </g>
   <g id="matplotlib.axis_2">
    <g id="ytick_1">
     <g id="line2d_37">
      <path d="M 7.2 285.2325 
L 453.6 285.2325 
" clip-path="url(#p12f882fe82)" style="fill: none; stroke-dasharray: 0.8,1.32; stroke-dashoffset: 0; stroke: #b0b0b0; stroke-width: 0.8"/>
     </g>
     <g id="line2d_38"/>
    </g>
    <g id="ytick_2">
     <g id="line2d_39">
      <path d="M 7.2 250.5825 
L 453.6 250.5825 
" clip-path="url(#p12f882fe82)" style="fill: none; stroke-dasharray: 0.8,1.32; stroke-dashoffset: 0; stroke: #b0b0b0; stroke-width: 0.8"/>
     </g>
     <g id="line2d_40"/>
    </g>
    <g id="ytick_3">
     <g id="line2d_41">
      <path d="M 7.2 215.9325 
L 453.6 215.9325 
" clip-path="url(#p12f882fe82)" style="fill: none; stroke-dasharray: 0.8,1.32; stroke-dashoffset: 0; stroke: #b0b0b0; stroke-width: 0.8"/>
     </g>
     <g id="line2d_42"/>
    </g>
    <g id="ytick_4">
     <g id="line2d_43">
      <path d="M 7.2 181.2825 
L 453.6 181.2825 
" clip-path="url(#p12f882fe82)" style="fill: none; stroke-dasharray: 0.8,1.32; stroke-dashoffset: 0; stroke: #b0b0b0; stroke-width: 0.8"/>
     </g>
     <g id="line2d_44"/>
    </g>
    <g id="ytick_5">
     <g id="line2d_45">
      <path d="M 7.2 146.6325 
L 453.6 146.6325 
" clip-path="url(#p12f882fe82)" style="fill: none; stroke-dasharray: 0.8,1.32; stroke-dashoffset: 0; stroke: #b0b0b0; stroke-width: 0.8"/>
     </g>
     <g id="line2d_46"/>
    </g>
    <g id="ytick_6">
     <g id="line2d_47">
      <path d="M 7.2 111.9825 
L 453.6 111.9825 
" clip-path="url(#p12f882fe82)" style="fill: none; stroke-dasharray: 0.8,1.32; stroke-dashoffset: 0; stroke: #b0b0b0; stroke-width: 0.8"/>
     </g>
     <g id="line2d_48"/>
    </g>
    <g id="ytick_7">
     <g id="line2d_49">
      <path d="M 7.2 77.3325 
L 453.6 77.3325 
" clip-path="url(#p12f882fe82)" style="fill: none; stroke-dasharray: 0.8,1.32; stroke-dashoffset: 0; stroke: #b0b0b0; stroke-width: 0.8"/>
     </g>
     <g id="line2d_50"/>
    </g>
    <g id="ytick_8">
     <g id="line2d_51">
      <path d="M 7.2 42.6825 
L 453.6 42.6825 
" clip-path="url(#p12f882fe82)" style="fill: none; stroke-dasharray: 0.8,1.32; stroke-dashoffset: 0; stroke: #b0b0b0; stroke-width: 0.8"/>
     </g>
     <g id="line2d_52"/>
    </g>
   </g>
   <g id="patch_3">
    <path d="M 7.2 302.5575 
L 7.2 25.3575 
" style="fill: none; stroke: #000000; stroke-width: 0.8; stroke-linejoin: miter; stroke-linecap: square"/>
   </g>
   <g id="patch_4">
    <path d="M 453.6 302.5575 
L 453.6 25.3575 
" style="fill: none; stroke: #000000; stroke-width: 0.8; stroke-linejoin: miter; stroke-linecap: square"/>
   </g>
   <g id="patch_5">
    <path d="M 7.2 302.5575 
L 453.6 302.5575 
" style="fill: none; stroke: #000000; stroke-width: 0.8; stroke-linejoin: miter; stroke-linecap: square"/>
   </g>
   <g id="patch_6">
    <path d="M 7.2 25.3575 
L 453.6 25.3575 
" style="fill: none; stroke: #000000; stroke-width: 0.8; stroke-linejoin: miter; stroke-linecap: square"/>
   </g>
   <g id="text_1">
    <g id="patch_7">
     <path d="M 314.036946 102.710109 
L 319.763196 102.710109 
Q 320.843196 102.710109 320.843196 101.630109 
L 320.843196 92.919797 
Q 320.843196 91.839797 319.763196 91.839797 
L 314.036946 91.839797 
Q 312.956946 91.839797 312.956946 92.919797 
L 312.956946 101.630109 
Q 312.956946 102.710109 314.036946 102.710109 
z
" style="fill: #ffffff; opacity: 0.7; stroke: #000000; stroke-linejoin: miter"/>
    </g>
    <!-- 1 -->
    <g transform="translate(314.036946 99.75839) scale(0.09 -0.09)">
     <defs>
      <path id="DejaVuSans-31" d="M 794 531 
L 1825 531 
L 1825 4091 
L 703 3866 
L 703 4441 
L 1819 4666 
L 2450 4666 
L 2450 531 
L 3481 531 
L 3481 0 
L 794 0 
L 794 531 
z
" transform="scale(0.015625)"/>
     </defs>
     <use xlink:href="#DejaVuSans-31"/>
    </g>
   </g>
   <g id="text_2">
    <g id="patch_8">
     <path d="M 351.667999 104.362363 
L 357.394249 104.362363 
Q 358.474249 104.362363 358.474249 103.282363 
L 358.474249 94.572051 
Q 358.474249 93.492051 357.394249 93.492051 
L 351.667999 93.492051 
Q 350.587999 93.492051 350.587999 94.572051 
L 350.587999 103.282363 
Q 350.587999 104.362363 351.667999 104.362363 
z
" style="fill: #ffffff; opacity: 0.7; stroke: #000000; stroke-linejoin: miter"/>
    </g>
    <!-- 2 -->
    <g transform="translate(351.667999 101.410645) scale(0.09 -0.09)">
     <defs>
      <path id="DejaVuSans-32" d="M 1228 531 
L 3431 531 
L 3431 0 
L 469 0 
L 469 531 
Q 828 903 1448 1529 
Q 2069 2156 2228 2338 
Q 2531 2678 2651 2914 
Q 2772 3150 2772 3378 
Q 2772 3750 2511 3984 
Q 2250 4219 1831 4219 
Q 1534 4219 1204 4116 
Q 875 4013 500 3803 
L 500 4441 
Q 881 4594 1212 4672 
Q 1544 4750 1819 4750 
Q 2544 4750 2975 4387 
Q 3406 4025 3406 3419 
Q 3406 3131 3298 2873 
Q 3191 2616 2906 2266 
Q 2828 2175 2409 1742 
Q 1991 1309 1228 531 
z
" transform="scale(0.015625)"/>
     </defs>
     <use xlink:href="#DejaVuSans-32"/>
    </g>
   </g>
   <g id="text_3">
    <g id="patch_9">
     <path d="M 315.986141 105.761909 
L 321.712391 105.761909 
Q 322.792391 105.761909 322.792391 104.681909 
L 322.792391 95.971596 
Q 322.792391 94.891596 321.712391 94.891596 
L 315.986141 94.891596 
Q 314.906141 94.891596 314.906141 95.971596 
L 314.906141 104.681909 
Q 314.906141 105.761909 315.986141 105.761909 
z
" style="fill: #ffffff; opacity: 0.7; stroke: #000000; stroke-linejoin: miter"/>
    </g>
    <!-- 3 -->
    <g transform="translate(315.986141 102.81019) scale(0.09 -0.09)">
     <defs>
      <path id="DejaVuSans-33" d="M 2597 2516 
Q 3050 2419 3304 2112 
Q 3559 1806 3559 1356 
Q 3559 666 3084 287 
Q 2609 -91 1734 -91 
Q 1441 -91 1130 -33 
Q 819 25 488 141 
L 488 750 
Q 750 597 1062 519 
Q 1375 441 1716 441 
Q 2309 441 2620 675 
Q 2931 909 2931 1356 
Q 2931 1769 2642 2001 
Q 2353 2234 1838 2234 
L 1294 2234 
L 1294 2753 
L 1863 2753 
Q 2328 2753 2575 2939 
Q 2822 3125 2822 3475 
Q 2822 3834 2567 4026 
Q 2313 4219 1838 4219 
Q 1578 4219 1281 4162 
Q 984 4106 628 3988 
L 628 4550 
Q 988 4650 1302 4700 
Q 1616 4750 1894 4750 
Q 2613 4750 3031 4423 
Q 3450 4097 3450 3541 
Q 3450 3153 3228 2886 
Q 3006 2619 2597 2516 
z
" transform="scale(0.015625)"/>
     </defs>
     <use xlink:href="#DejaVuSans-33"/>
    </g>
   </g>
   <g id="text_4">
    <g id="patch_10">
     <path d="M 413.105649 52.398369 
L 418.831899 52.398369 
Q 419.911899 52.398369 419.911899 51.318369 
L 419.911899 42.608057 
Q 419.911899 41.528057 418.831899 41.528057 
L 413.105649 41.528057 
Q 412.025649 41.528057 412.025649 42.608057 
L 412.025649 51.318369 
Q 412.025649 52.398369 413.105649 52.398369 
z
" style="fill: #ffffff; opacity: 0.7; stroke: #000000; stroke-linejoin: miter"/>
    </g>
    <!-- 4 -->
    <g transform="translate(413.105649 49.44665) scale(0.09 -0.09)">
     <defs>
      <path id="DejaVuSans-34" d="M 2419 4116 
L 825 1625 
L 2419 1625 
L 2419 4116 
z
M 2253 4666 
L 3047 4666 
L 3047 1625 
L 3713 1625 
L 3713 1100 
L 3047 1100 
L 3047 0 
L 2419 0 
L 2419 1100 
L 313 1100 
L 313 1709 
L 2253 4666 
z
" transform="scale(0.015625)"/>
     </defs>
     <use xlink:href="#DejaVuSans-34"/>
    </g>
   </g>
   <g id="text_5">
    <g id="patch_11">
     <path d="M 380.481834 58.473648 
L 386.208084 58.473648 
Q 387.288084 58.473648 387.288084 57.393648 
L 387.288084 48.683335 
Q 387.288084 47.603335 386.208084 47.603335 
L 380.481834 47.603335 
Q 379.401834 47.603335 379.401834 48.683335 
L 379.401834 57.393648 
Q 379.401834 58.473648 380.481834 58.473648 
z
" style="fill: #ffffff; opacity: 0.7; stroke: #000000; stroke-linejoin: miter"/>
    </g>
    <!-- 5 -->
    <g transform="translate(380.481834 55.521929) scale(0.09 -0.09)">
     <defs>
      <path id="DejaVuSans-35" d="M 691 4666 
L 3169 4666 
L 3169 4134 
L 1269 4134 
L 1269 2991 
Q 1406 3038 1543 3061 
Q 1681 3084 1819 3084 
Q 2600 3084 3056 2656 
Q 3513 2228 3513 1497 
Q 3513 744 3044 326 
Q 2575 -91 1722 -91 
Q 1428 -91 1123 -41 
Q 819 9 494 109 
L 494 744 
Q 775 591 1075 516 
Q 1375 441 1709 441 
Q 2250 441 2565 725 
Q 2881 1009 2881 1497 
Q 2881 1984 2565 2268 
Q 2250 2553 1709 2553 
Q 1456 2553 1204 2497 
Q 953 2441 691 2322 
L 691 4666 
z
" transform="scale(0.015625)"/>
     </defs>
     <use xlink:href="#DejaVuSans-35"/>
    </g>
   </g>
   <g id="text_6">
    <g id="patch_12">
     <path d="M 281.699369 167.150324 
L 287.425619 167.150324 
Q 288.505619 167.150324 288.505619 166.070324 
L 288.505619 157.360012 
Q 288.505619 156.280012 287.425619 156.280012 
L 281.699369 156.280012 
Q 280.619369 156.280012 280.619369 157.360012 
L 280.619369 166.070324 
Q 280.619369 167.150324 281.699369 167.150324 
z
" style="fill: #ffffff; opacity: 0.7; stroke: #000000; stroke-linejoin: miter"/>
    </g>
    <!-- 6 -->
    <g transform="translate(281.699369 164.198605) scale(0.09 -0.09)">
     <defs>
      <path id="DejaVuSans-36" d="M 2113 2584 
Q 1688 2584 1439 2293 
Q 1191 2003 1191 1497 
Q 1191 994 1439 701 
Q 1688 409 2113 409 
Q 2538 409 2786 701 
Q 3034 994 3034 1497 
Q 3034 2003 2786 2293 
Q 2538 2584 2113 2584 
z
M 3366 4563 
L 3366 3988 
Q 3128 4100 2886 4159 
Q 2644 4219 2406 4219 
Q 1781 4219 1451 3797 
Q 1122 3375 1075 2522 
Q 1259 2794 1537 2939 
Q 1816 3084 2150 3084 
Q 2853 3084 3261 2657 
Q 3669 2231 3669 1497 
Q 3669 778 3244 343 
Q 2819 -91 2113 -91 
Q 1303 -91 875 529 
Q 447 1150 447 2328 
Q 447 3434 972 4092 
Q 1497 4750 2381 4750 
Q 2619 4750 2861 4703 
Q 3103 4656 3366 4563 
z
" transform="scale(0.015625)"/>
     </defs>
     <use xlink:href="#DejaVuSans-36"/>
    </g>
   </g>
   <g id="text_7">
    <g id="patch_13">
     <path d="M 238.870495 157.407989 
L 244.596745 157.407989 
Q 245.676745 157.407989 245.676745 156.327989 
L 245.676745 147.617677 
Q 245.676745 146.537677 244.596745 146.537677 
L 238.870495 146.537677 
Q 237.790495 146.537677 237.790495 147.617677 
L 237.790495 156.327989 
Q 237.790495 157.407989 238.870495 157.407989 
z
" style="fill: #ffffff; opacity: 0.7; stroke: #000000; stroke-linejoin: miter"/>
    </g>
    <!-- 7 -->
    <g transform="translate(238.870495 154.456271) scale(0.09 -0.09)">
     <defs>
      <path id="DejaVuSans-37" d="M 525 4666 
L 3525 4666 
L 3525 4397 
L 1831 0 
L 1172 0 
L 2766 4134 
L 525 4134 
L 525 4666 
z
" transform="scale(0.015625)"/>
     </defs>
     <use xlink:href="#DejaVuSans-37"/>
    </g>
   </g>
   <g id="text_8">
    <g id="patch_14">
     <path d="M 364.125182 216.123757 
L 369.851432 216.123757 
Q 370.931432 216.123757 370.931432 215.043757 
L 370.931432 206.333444 
Q 370.931432 205.253444 369.851432 205.253444 
L 364.125182 205.253444 
Q 363.045182 205.253444 363.045182 206.333444 
L 363.045182 215.043757 
Q 363.045182 216.123757 364.125182 216.123757 
z
" style="fill: #ffffff; opacity: 0.7; stroke: #000000; stroke-linejoin: miter"/>
    </g>
    <!-- 8 -->
    <g transform="translate(364.125182 213.172038) scale(0.09 -0.09)">
     <defs>
      <path id="DejaVuSans-38" d="M 2034 2216 
Q 1584 2216 1326 1975 
Q 1069 1734 1069 1313 
Q 1069 891 1326 650 
Q 1584 409 2034 409 
Q 2484 409 2743 651 
Q 3003 894 3003 1313 
Q 3003 1734 2745 1975 
Q 2488 2216 2034 2216 
z
M 1403 2484 
Q 997 2584 770 2862 
Q 544 3141 544 3541 
Q 544 4100 942 4425 
Q 1341 4750 2034 4750 
Q 2731 4750 3128 4425 
Q 3525 4100 3525 3541 
Q 3525 3141 3298 2862 
Q 3072 2584 2669 2484 
Q 3125 2378 3379 2068 
Q 3634 1759 3634 1313 
Q 3634 634 3220 271 
Q 2806 -91 2034 -91 
Q 1263 -91 848 271 
Q 434 634 434 1313 
Q 434 1759 690 2068 
Q 947 2378 1403 2484 
z
M 1172 3481 
Q 1172 3119 1398 2916 
Q 1625 2713 2034 2713 
Q 2441 2713 2670 2916 
Q 2900 3119 2900 3481 
Q 2900 3844 2670 4047 
Q 2441 4250 2034 4250 
Q 1625 4250 1398 4047 
Q 1172 3844 1172 3481 
z
" transform="scale(0.015625)"/>
     </defs>
     <use xlink:href="#DejaVuSans-38"/>
    </g>
   </g>
   <g id="text_9">
    <g id="patch_15">
     <path d="M 204.235741 277.557131 
L 209.961991 277.557131 
Q 211.041991 277.557131 211.041991 276.477131 
L 211.041991 267.766818 
Q 211.041991 266.686818 209.961991 266.686818 
L 204.235741 266.686818 
Q 203.155741 266.686818 203.155741 267.766818 
L 203.155741 276.477131 
Q 203.155741 277.557131 204.235741 277.557131 
z
" style="fill: #ffffff; opacity: 0.7; stroke: #000000; stroke-linejoin: miter"/>
    </g>
    <!-- 9 -->
    <g transform="translate(204.235741 274.605412) scale(0.09 -0.09)">
     <defs>
      <path id="DejaVuSans-39" d="M 703 97 
L 703 672 
Q 941 559 1184 500 
Q 1428 441 1663 441 
Q 2288 441 2617 861 
Q 2947 1281 2994 2138 
Q 2813 1869 2534 1725 
Q 2256 1581 1919 1581 
Q 1219 1581 811 2004 
Q 403 2428 403 3163 
Q 403 3881 828 4315 
Q 1253 4750 1959 4750 
Q 2769 4750 3195 4129 
Q 3622 3509 3622 2328 
Q 3622 1225 3098 567 
Q 2575 -91 1691 -91 
Q 1453 -91 1209 -44 
Q 966 3 703 97 
z
M 1959 2075 
Q 2384 2075 2632 2365 
Q 2881 2656 2881 3163 
Q 2881 3666 2632 3958 
Q 2384 4250 1959 4250 
Q 1534 4250 1286 3958 
Q 1038 3666 1038 3163 
Q 1038 2656 1286 2365 
Q 1534 2075 1959 2075 
z
" transform="scale(0.015625)"/>
     </defs>
     <use xlink:href="#DejaVuSans-39"/>
    </g>
   </g>
   <g id="text_10">
    <g id="patch_16">
     <path d="M 266.870262 274.789372 
L 278.322762 274.789372 
Q 279.402762 274.789372 279.402762 273.709372 
L 279.402762 264.999059 
Q 279.402762 263.919059 278.322762 263.919059 
L 266.870262 263.919059 
Q 265.790262 263.919059 265.790262 264.999059 
L 265.790262 273.709372 
Q 265.790262 274.789372 266.870262 274.789372 
z
" style="fill: #ffffff; opacity: 0.7; stroke: #000000; stroke-linejoin: miter"/>
    </g>
    <!-- 10 -->
    <g transform="translate(266.870262 271.837653) scale(0.09 -0.09)">
     <defs>
      <path id="DejaVuSans-30" d="M 2034 4250 
Q 1547 4250 1301 3770 
Q 1056 3291 1056 2328 
Q 1056 1369 1301 889 
Q 1547 409 2034 409 
Q 2525 409 2770 889 
Q 3016 1369 3016 2328 
Q 3016 3291 2770 3770 
Q 2525 4250 2034 4250 
z
M 2034 4750 
Q 2819 4750 3233 4129 
Q 3647 3509 3647 2328 
Q 3647 1150 3233 529 
Q 2819 -91 2034 -91 
Q 1250 -91 836 529 
Q 422 1150 422 2328 
Q 422 3509 836 4129 
Q 1250 4750 2034 4750 
z
" transform="scale(0.015625)"/>
     </defs>
     <use xlink:href="#DejaVuSans-31"/>
     <use xlink:href="#DejaVuSans-30" transform="translate(63.623047 0)"/>
    </g>
   </g>
   <g id="text_11">
    <g id="patch_17">
     <path d="M 177.226084 155.252809 
L 188.678584 155.252809 
Q 189.758584 155.252809 189.758584 154.172809 
L 189.758584 145.462496 
Q 189.758584 144.382496 188.678584 144.382496 
L 177.226084 144.382496 
Q 176.146084 144.382496 176.146084 145.462496 
L 176.146084 154.172809 
Q 176.146084 155.252809 177.226084 155.252809 
z
" style="fill: #ffffff; opacity: 0.7; stroke: #000000; stroke-linejoin: miter"/>
    </g>
    <!-- 11 -->
    <g transform="translate(177.226084 152.30109) scale(0.09 -0.09)">
     <use xlink:href="#DejaVuSans-31"/>
     <use xlink:href="#DejaVuSans-31" transform="translate(63.623047 0)"/>
    </g>
   </g>
   <g id="text_12">
    <g id="patch_18">
     <path d="M 230.711649 149.183476 
L 242.164149 149.183476 
Q 243.244149 149.183476 243.244149 148.103476 
L 243.244149 139.393164 
Q 243.244149 138.313164 242.164149 138.313164 
L 230.711649 138.313164 
Q 229.631649 138.313164 229.631649 139.393164 
L 229.631649 148.103476 
Q 229.631649 149.183476 230.711649 149.183476 
z
" style="fill: #ffffff; opacity: 0.7; stroke: #000000; stroke-linejoin: miter"/>
    </g>
    <!-- 12 -->
    <g transform="translate(230.711649 146.231757) scale(0.09 -0.09)">
     <use xlink:href="#DejaVuSans-31"/>
     <use xlink:href="#DejaVuSans-32" transform="translate(63.623047 0)"/>
    </g>
   </g>
   <g id="text_13">
    <g id="patch_19">
     <path d="M 195.099689 134.121462 
L 206.552189 134.121462 
Q 207.632189 134.121462 207.632189 133.041462 
L 207.632189 124.331149 
Q 207.632189 123.251149 206.552189 123.251149 
L 195.099689 123.251149 
Q 194.019689 123.251149 194.019689 124.331149 
L 194.019689 133.041462 
Q 194.019689 134.121462 195.099689 134.121462 
z
" style="fill: #ffffff; opacity: 0.7; stroke: #000000; stroke-linejoin: miter"/>
    </g>
    <!-- 13 -->
    <g transform="translate(195.099689 131.169743) scale(0.09 -0.09)">
     <use xlink:href="#DejaVuSans-31"/>
     <use xlink:href="#DejaVuSans-33" transform="translate(63.623047 0)"/>
    </g>
   </g>
   <g id="text_14">
    <g id="patch_20">
     <path d="M 211.182222 138.245241 
L 222.634722 138.245241 
Q 223.714722 138.245241 223.714722 137.165241 
L 223.714722 128.454929 
Q 223.714722 127.374929 222.634722 127.374929 
L 211.182222 127.374929 
Q 210.102222 127.374929 210.102222 128.454929 
L 210.102222 137.165241 
Q 210.102222 138.245241 211.182222 138.245241 
z
" style="fill: #ffffff; opacity: 0.7; stroke: #000000; stroke-linejoin: miter"/>
    </g>
    <!-- 14 -->
    <g transform="translate(211.182222 135.293522) scale(0.09 -0.09)">
     <use xlink:href="#DejaVuSans-31"/>
     <use xlink:href="#DejaVuSans-34" transform="translate(63.623047 0)"/>
    </g>
   </g>
   <g id="text_15">
    <g id="patch_21">
     <path d="M 221.222356 138.424853 
L 232.674856 138.424853 
Q 233.754856 138.424853 233.754856 137.344853 
L 233.754856 128.634541 
Q 233.754856 127.554541 232.674856 127.554541 
L 221.222356 127.554541 
Q 220.142356 127.554541 220.142356 128.634541 
L 220.142356 137.344853 
Q 220.142356 138.424853 221.222356 138.424853 
z
" style="fill: #ffffff; opacity: 0.7; stroke: #000000; stroke-linejoin: miter"/>
    </g>
    <!-- 15 -->
    <g transform="translate(221.222356 135.473135) scale(0.09 -0.09)">
     <use xlink:href="#DejaVuSans-31"/>
     <use xlink:href="#DejaVuSans-35" transform="translate(63.623047 0)"/>
    </g>
   </g>
   <g id="text_16">
    <g id="patch_22">
     <path d="M 219.95749 145.886781 
L 231.40999 145.886781 
Q 232.48999 145.886781 232.48999 144.806781 
L 232.48999 136.096468 
Q 232.48999 135.016468 231.40999 135.016468 
L 219.95749 135.016468 
Q 218.87749 135.016468 218.87749 136.096468 
L 218.87749 144.806781 
Q 218.87749 145.886781 219.95749 145.886781 
z
" style="fill: #ffffff; opacity: 0.7; stroke: #000000; stroke-linejoin: miter"/>
    </g>
    <!-- 16 -->
    <g transform="translate(219.95749 142.935062) scale(0.09 -0.09)">
     <use xlink:href="#DejaVuSans-31"/>
     <use xlink:href="#DejaVuSans-36" transform="translate(63.623047 0)"/>
    </g>
   </g>
   <g id="text_17">
    <g id="patch_23">
     <path d="M 175.754891 136.658971 
L 187.207391 136.658971 
Q 188.287391 136.658971 188.287391 135.578971 
L 188.287391 126.868659 
Q 188.287391 125.788659 187.207391 125.788659 
L 175.754891 125.788659 
Q 174.674891 125.788659 174.674891 126.868659 
L 174.674891 135.578971 
Q 174.674891 136.658971 175.754891 136.658971 
z
" style="fill: #ffffff; opacity: 0.7; stroke: #000000; stroke-linejoin: miter"/>
    </g>
    <!-- 17 -->
    <g transform="translate(175.754891 133.707253) scale(0.09 -0.09)">
     <use xlink:href="#DejaVuSans-31"/>
     <use xlink:href="#DejaVuSans-37" transform="translate(63.623047 0)"/>
    </g>
   </g>
   <g id="text_18">
    <g id="patch_24">
     <path d="M 212.230708 135.936043 
L 223.683208 135.936043 
Q 224.763208 135.936043 224.763208 134.856043 
L 224.763208 126.14573 
Q 224.763208 125.06573 223.683208 125.06573 
L 212.230708 125.06573 
Q 211.150708 125.06573 211.150708 126.14573 
L 211.150708 134.856043 
Q 211.150708 135.936043 212.230708 135.936043 
z
" style="fill: #ffffff; opacity: 0.7; stroke: #000000; stroke-linejoin: miter"/>
    </g>
    <!-- 18 -->
    <g transform="translate(212.230708 132.984324) scale(0.09 -0.09)">
     <use xlink:href="#DejaVuSans-31"/>
     <use xlink:href="#DejaVuSans-38" transform="translate(63.623047 0)"/>
    </g>
   </g>
   <g id="text_19">
    <g id="patch_25">
     <path d="M 105.91602 103.547526 
L 117.36852 103.547526 
Q 118.44852 103.547526 118.44852 102.467526 
L 118.44852 93.757213 
Q 118.44852 92.677213 117.36852 92.677213 
L 105.91602 92.677213 
Q 104.83602 92.677213 104.83602 93.757213 
L 104.83602 102.467526 
Q 104.83602 103.547526 105.91602 103.547526 
z
" style="fill: #ffffff; opacity: 0.7; stroke: #000000; stroke-linejoin: miter"/>
    </g>
    <!-- 19 -->
    <g transform="translate(105.91602 100.595807) scale(0.09 -0.09)">
     <use xlink:href="#DejaVuSans-31"/>
     <use xlink:href="#DejaVuSans-39" transform="translate(63.623047 0)"/>
    </g>
   </g>
   <g id="text_20">
    <g id="patch_26">
     <path d="M 66.011176 122.497153 
L 77.463676 122.497153 
Q 78.543676 122.497153 78.543676 121.417153 
L 78.543676 112.70684 
Q 78.543676 111.62684 77.463676 111.62684 
L 66.011176 111.62684 
Q 64.931176 111.62684 64.931176 112.70684 
L 64.931176 121.417153 
Q 64.931176 122.497153 66.011176 122.497153 
z
" style="fill: #ffffff; opacity: 0.7; stroke: #000000; stroke-linejoin: miter"/>
    </g>
    <!-- 20 -->
    <g transform="translate(66.011176 119.545434) scale(0.09 -0.09)">
     <use xlink:href="#DejaVuSans-32"/>
     <use xlink:href="#DejaVuSans-30" transform="translate(63.623047 0)"/>
    </g>
   </g>
   <g id="text_21">
    <g id="patch_27">
     <path d="M 67.855237 105.436979 
L 79.307737 105.436979 
Q 80.387737 105.436979 80.387737 104.356979 
L 80.387737 95.646666 
Q 80.387737 94.566666 79.307737 94.566666 
L 67.855237 94.566666 
Q 66.775237 94.566666 66.775237 95.646666 
L 66.775237 104.356979 
Q 66.775237 105.436979 67.855237 105.436979 
z
" style="fill: #ffffff; opacity: 0.7; stroke: #000000; stroke-linejoin: miter"/>
    </g>
    <!-- 21 -->
    <g transform="translate(67.855237 102.48526) scale(0.09 -0.09)">
     <use xlink:href="#DejaVuSans-32"/>
     <use xlink:href="#DejaVuSans-31" transform="translate(63.623047 0)"/>
    </g>
   </g>
   <g id="text_22">
    <g id="patch_28">
     <path d="M 186.552858 135.748737 
L 198.005358 135.748737 
Q 199.085358 135.748737 199.085358 134.668737 
L 199.085358 125.958424 
Q 199.085358 124.878424 198.005358 124.878424 
L 186.552858 124.878424 
Q 185.472858 124.878424 185.472858 125.958424 
L 185.472858 134.668737 
Q 185.472858 135.748737 186.552858 135.748737 
z
" style="fill: #ffffff; opacity: 0.7; stroke: #000000; stroke-linejoin: miter"/>
    </g>
    <!-- 22 -->
    <g transform="translate(186.552858 132.797018) scale(0.09 -0.09)">
     <use xlink:href="#DejaVuSans-32"/>
     <use xlink:href="#DejaVuSans-32" transform="translate(63.623047 0)"/>
    </g>
   </g>
   <g id="text_23">
    <g id="patch_29">
     <path d="M 394.152 253.1175 
L 444.672 253.1175 
Q 450.672 253.1175 450.672 247.1175 
L 450.672 222.066375 
Q 450.672 216.066375 444.672 216.066375 
L 394.152 216.066375 
Q 388.152 216.066375 388.152 222.066375 
L 388.152 247.1175 
Q 388.152 253.1175 394.152 253.1175 
z
" style="fill: #f5deb3; opacity: 0.5; stroke: #000000; stroke-linejoin: miter"/>
    </g>
    <!-- $\Delta$: 0.426 -->
    <g transform="translate(394.152 231.160125) scale(0.12 -0.12)">
     <defs>
      <path id="DejaVuSans-394" d="M 2188 4044 
L 906 525 
L 3472 525 
L 2188 4044 
z
M 50 0 
L 1831 4666 
L 2547 4666 
L 4325 0 
L 50 0 
z
" transform="scale(0.015625)"/>
      <path id="DejaVuSans-3a" d="M 750 794 
L 1409 794 
L 1409 0 
L 750 0 
L 750 794 
z
M 750 3309 
L 1409 3309 
L 1409 2516 
L 750 2516 
L 750 3309 
z
" transform="scale(0.015625)"/>
      <path id="DejaVuSans-20" transform="scale(0.015625)"/>
      <path id="DejaVuSans-2e" d="M 684 794 
L 1344 794 
L 1344 0 
L 684 0 
L 684 794 
z
" transform="scale(0.015625)"/>
     </defs>
     <use xlink:href="#DejaVuSans-394" transform="translate(0 0.78125)"/>
     <use xlink:href="#DejaVuSans-3a" transform="translate(68.408203 0.78125)"/>
     <use xlink:href="#DejaVuSans-20" transform="translate(102.099609 0.78125)"/>
     <use xlink:href="#DejaVuSans-30" transform="translate(133.886719 0.78125)"/>
     <use xlink:href="#DejaVuSans-2e" transform="translate(197.509766 0.78125)"/>
     <use xlink:href="#DejaVuSans-34" transform="translate(229.296875 0.78125)"/>
     <use xlink:href="#DejaVuSans-32" transform="translate(292.919922 0.78125)"/>
     <use xlink:href="#DejaVuSans-36" transform="translate(356.542969 0.78125)"/>
    </g>
    <!-- $\rho$: 0.560 -->
    <g transform="translate(394.752 244.5975) scale(0.12 -0.12)">
     <defs>
      <path id="DejaVuSans-Oblique-3c1" d="M 1203 2875 
Q 1453 3194 1981 3475 
Q 2188 3584 2756 3584 
Q 3394 3584 3694 3078 
Q 3994 2572 3834 1747 
Q 3672 922 3175 415 
Q 2678 -91 2041 -91 
Q 1656 -91 1409 63 
Q 1163 213 1044 525 
L 681 -1331 
L 103 -1331 
L 697 1716 
Q 838 2438 1203 2875 
z
M 3238 1747 
Q 3359 2381 3169 2744 
Q 2978 3103 2522 3103 
Q 2066 3103 1734 2744 
Q 1403 2381 1281 1747 
Q 1156 1113 1347 750 
Q 1538 391 1994 391 
Q 2450 391 2781 750 
Q 3113 1113 3238 1747 
z
" transform="scale(0.015625)"/>
     </defs>
     <use xlink:href="#DejaVuSans-Oblique-3c1" transform="translate(0 0.78125)"/>
     <use xlink:href="#DejaVuSans-3a" transform="translate(63.476562 0.78125)"/>
     <use xlink:href="#DejaVuSans-20" transform="translate(97.167969 0.78125)"/>
     <use xlink:href="#DejaVuSans-30" transform="translate(128.955078 0.78125)"/>
     <use xlink:href="#DejaVuSans-2e" transform="translate(192.578125 0.78125)"/>
     <use xlink:href="#DejaVuSans-35" transform="translate(224.365234 0.78125)"/>
     <use xlink:href="#DejaVuSans-36" transform="translate(287.988281 0.78125)"/>
     <use xlink:href="#DejaVuSans-30" transform="translate(351.611328 0.78125)"/>
    </g>
   </g>
   <g id="text_24">
    <!-- Unified Model vs. LNRT Model -->
    <g transform="translate(112.2475 19.3575) scale(0.16 -0.16)">
     <defs>
      <path id="DejaVuSans-55" d="M 556 4666 
L 1191 4666 
L 1191 1831 
Q 1191 1081 1462 751 
Q 1734 422 2344 422 
Q 2950 422 3222 751 
Q 3494 1081 3494 1831 
L 3494 4666 
L 4128 4666 
L 4128 1753 
Q 4128 841 3676 375 
Q 3225 -91 2344 -91 
Q 1459 -91 1007 375 
Q 556 841 556 1753 
L 556 4666 
z
" transform="scale(0.015625)"/>
      <path id="DejaVuSans-6e" d="M 3513 2113 
L 3513 0 
L 2938 0 
L 2938 2094 
Q 2938 2591 2744 2837 
Q 2550 3084 2163 3084 
Q 1697 3084 1428 2787 
Q 1159 2491 1159 1978 
L 1159 0 
L 581 0 
L 581 3500 
L 1159 3500 
L 1159 2956 
Q 1366 3272 1645 3428 
Q 1925 3584 2291 3584 
Q 2894 3584 3203 3211 
Q 3513 2838 3513 2113 
z
" transform="scale(0.015625)"/>
      <path id="DejaVuSans-69" d="M 603 3500 
L 1178 3500 
L 1178 0 
L 603 0 
L 603 3500 
z
M 603 4863 
L 1178 4863 
L 1178 4134 
L 603 4134 
L 603 4863 
z
" transform="scale(0.015625)"/>
      <path id="DejaVuSans-66" d="M 2375 4863 
L 2375 4384 
L 1825 4384 
Q 1516 4384 1395 4259 
Q 1275 4134 1275 3809 
L 1275 3500 
L 2222 3500 
L 2222 3053 
L 1275 3053 
L 1275 0 
L 697 0 
L 697 3053 
L 147 3053 
L 147 3500 
L 697 3500 
L 697 3744 
Q 697 4328 969 4595 
Q 1241 4863 1831 4863 
L 2375 4863 
z
" transform="scale(0.015625)"/>
      <path id="DejaVuSans-65" d="M 3597 1894 
L 3597 1613 
L 953 1613 
Q 991 1019 1311 708 
Q 1631 397 2203 397 
Q 2534 397 2845 478 
Q 3156 559 3463 722 
L 3463 178 
Q 3153 47 2828 -22 
Q 2503 -91 2169 -91 
Q 1331 -91 842 396 
Q 353 884 353 1716 
Q 353 2575 817 3079 
Q 1281 3584 2069 3584 
Q 2775 3584 3186 3129 
Q 3597 2675 3597 1894 
z
M 3022 2063 
Q 3016 2534 2758 2815 
Q 2500 3097 2075 3097 
Q 1594 3097 1305 2825 
Q 1016 2553 972 2059 
L 3022 2063 
z
" transform="scale(0.015625)"/>
      <path id="DejaVuSans-64" d="M 2906 2969 
L 2906 4863 
L 3481 4863 
L 3481 0 
L 2906 0 
L 2906 525 
Q 2725 213 2448 61 
Q 2172 -91 1784 -91 
Q 1150 -91 751 415 
Q 353 922 353 1747 
Q 353 2572 751 3078 
Q 1150 3584 1784 3584 
Q 2172 3584 2448 3432 
Q 2725 3281 2906 2969 
z
M 947 1747 
Q 947 1113 1208 752 
Q 1469 391 1925 391 
Q 2381 391 2643 752 
Q 2906 1113 2906 1747 
Q 2906 2381 2643 2742 
Q 2381 3103 1925 3103 
Q 1469 3103 1208 2742 
Q 947 2381 947 1747 
z
" transform="scale(0.015625)"/>
      <path id="DejaVuSans-4d" d="M 628 4666 
L 1569 4666 
L 2759 1491 
L 3956 4666 
L 4897 4666 
L 4897 0 
L 4281 0 
L 4281 4097 
L 3078 897 
L 2444 897 
L 1241 4097 
L 1241 0 
L 628 0 
L 628 4666 
z
" transform="scale(0.015625)"/>
      <path id="DejaVuSans-6f" d="M 1959 3097 
Q 1497 3097 1228 2736 
Q 959 2375 959 1747 
Q 959 1119 1226 758 
Q 1494 397 1959 397 
Q 2419 397 2687 759 
Q 2956 1122 2956 1747 
Q 2956 2369 2687 2733 
Q 2419 3097 1959 3097 
z
M 1959 3584 
Q 2709 3584 3137 3096 
Q 3566 2609 3566 1747 
Q 3566 888 3137 398 
Q 2709 -91 1959 -91 
Q 1206 -91 779 398 
Q 353 888 353 1747 
Q 353 2609 779 3096 
Q 1206 3584 1959 3584 
z
" transform="scale(0.015625)"/>
      <path id="DejaVuSans-6c" d="M 603 4863 
L 1178 4863 
L 1178 0 
L 603 0 
L 603 4863 
z
" transform="scale(0.015625)"/>
      <path id="DejaVuSans-76" d="M 191 3500 
L 800 3500 
L 1894 563 
L 2988 3500 
L 3597 3500 
L 2284 0 
L 1503 0 
L 191 3500 
z
" transform="scale(0.015625)"/>
      <path id="DejaVuSans-73" d="M 2834 3397 
L 2834 2853 
Q 2591 2978 2328 3040 
Q 2066 3103 1784 3103 
Q 1356 3103 1142 2972 
Q 928 2841 928 2578 
Q 928 2378 1081 2264 
Q 1234 2150 1697 2047 
L 1894 2003 
Q 2506 1872 2764 1633 
Q 3022 1394 3022 966 
Q 3022 478 2636 193 
Q 2250 -91 1575 -91 
Q 1294 -91 989 -36 
Q 684 19 347 128 
L 347 722 
Q 666 556 975 473 
Q 1284 391 1588 391 
Q 1994 391 2212 530 
Q 2431 669 2431 922 
Q 2431 1156 2273 1281 
Q 2116 1406 1581 1522 
L 1381 1569 
Q 847 1681 609 1914 
Q 372 2147 372 2553 
Q 372 3047 722 3315 
Q 1072 3584 1716 3584 
Q 2034 3584 2315 3537 
Q 2597 3491 2834 3397 
z
" transform="scale(0.015625)"/>
      <path id="DejaVuSans-4c" d="M 628 4666 
L 1259 4666 
L 1259 531 
L 3531 531 
L 3531 0 
L 628 0 
L 628 4666 
z
" transform="scale(0.015625)"/>
      <path id="DejaVuSans-4e" d="M 628 4666 
L 1478 4666 
L 3547 763 
L 3547 4666 
L 4159 4666 
L 4159 0 
L 3309 0 
L 1241 3903 
L 1241 0 
L 628 0 
L 628 4666 
z
" transform="scale(0.015625)"/>
      <path id="DejaVuSans-52" d="M 2841 2188 
Q 3044 2119 3236 1894 
Q 3428 1669 3622 1275 
L 4263 0 
L 3584 0 
L 2988 1197 
Q 2756 1666 2539 1819 
Q 2322 1972 1947 1972 
L 1259 1972 
L 1259 0 
L 628 0 
L 628 4666 
L 2053 4666 
Q 2853 4666 3247 4331 
Q 3641 3997 3641 3322 
Q 3641 2881 3436 2590 
Q 3231 2300 2841 2188 
z
M 1259 4147 
L 1259 2491 
L 2053 2491 
Q 2509 2491 2742 2702 
Q 2975 2913 2975 3322 
Q 2975 3731 2742 3939 
Q 2509 4147 2053 4147 
L 1259 4147 
z
" transform="scale(0.015625)"/>
      <path id="DejaVuSans-54" d="M -19 4666 
L 3928 4666 
L 3928 4134 
L 2272 4134 
L 2272 0 
L 1638 0 
L 1638 4134 
L -19 4134 
L -19 4666 
z
" transform="scale(0.015625)"/>
     </defs>
     <use xlink:href="#DejaVuSans-55"/>
     <use xlink:href="#DejaVuSans-6e" transform="translate(73.193359 0)"/>
     <use xlink:href="#DejaVuSans-69" transform="translate(136.572266 0)"/>
     <use xlink:href="#DejaVuSans-66" transform="translate(164.355469 0)"/>
     <use xlink:href="#DejaVuSans-69" transform="translate(199.560547 0)"/>
     <use xlink:href="#DejaVuSans-65" transform="translate(227.34375 0)"/>
     <use xlink:href="#DejaVuSans-64" transform="translate(288.867188 0)"/>
     <use xlink:href="#DejaVuSans-20" transform="translate(352.34375 0)"/>
     <use xlink:href="#DejaVuSans-4d" transform="translate(384.130859 0)"/>
     <use xlink:href="#DejaVuSans-6f" transform="translate(470.410156 0)"/>
     <use xlink:href="#DejaVuSans-64" transform="translate(531.591797 0)"/>
     <use xlink:href="#DejaVuSans-65" transform="translate(595.068359 0)"/>
     <use xlink:href="#DejaVuSans-6c" transform="translate(656.591797 0)"/>
     <use xlink:href="#DejaVuSans-20" transform="translate(684.375 0)"/>
     <use xlink:href="#DejaVuSans-76" transform="translate(716.162109 0)"/>
     <use xlink:href="#DejaVuSans-73" transform="translate(775.341797 0)"/>
     <use xlink:href="#DejaVuSans-2e" transform="translate(827.441406 0)"/>
     <use xlink:href="#DejaVuSans-20" transform="translate(859.228516 0)"/>
     <use xlink:href="#DejaVuSans-4c" transform="translate(891.015625 0)"/>
     <use xlink:href="#DejaVuSans-4e" transform="translate(946.728516 0)"/>
     <use xlink:href="#DejaVuSans-52" transform="translate(1021.533203 0)"/>
     <use xlink:href="#DejaVuSans-54" transform="translate(1083.765625 0)"/>
     <use xlink:href="#DejaVuSans-20" transform="translate(1144.849609 0)"/>
     <use xlink:href="#DejaVuSans-4d" transform="translate(1176.636719 0)"/>
     <use xlink:href="#DejaVuSans-6f" transform="translate(1262.916016 0)"/>
     <use xlink:href="#DejaVuSans-64" transform="translate(1324.097656 0)"/>
     <use xlink:href="#DejaVuSans-65" transform="translate(1387.574219 0)"/>
     <use xlink:href="#DejaVuSans-6c" transform="translate(1449.097656 0)"/>
    </g>
   </g>
   <g id="PathCollection_1">
    <defs>
     <path id="m58bbb9d40d" d="M 0 5.477226 
C 1.452577 5.477226 2.845856 4.900111 3.872983 3.872983 
C 4.900111 2.845856 5.477226 1.452577 5.477226 0 
C 5.477226 -1.452577 4.900111 -2.845856 3.872983 -3.872983 
C 2.845856 -4.900111 1.452577 -5.477226 0 -5.477226 
C -1.452577 -5.477226 -2.845856 -4.900111 -3.872983 -3.872983 
C -4.900111 -2.845856 -5.477226 -1.452577 -5.477226 0 
C -5.477226 1.452577 -4.900111 2.845856 -3.872983 3.872983 
C -2.845856 4.900111 -1.452577 5.477226 0 5.477226 
z
" style="stroke: #000000"/>
    </defs>
    <g clip-path="url(#p12f882fe82)">
     <use xlink:href="#m58bbb9d40d" x="308.036946" y="107.630109" style="fill: #1e90ff; stroke: #000000"/>
     <use xlink:href="#m58bbb9d40d" x="345.667999" y="109.282363" style="fill: #1e90ff; stroke: #000000"/>
     <use xlink:href="#m58bbb9d40d" x="309.986141" y="110.681909" style="fill: #1e90ff; stroke: #000000"/>
     <use xlink:href="#m58bbb9d40d" x="407.105649" y="57.318369" style="fill: #1e90ff; stroke: #000000"/>
     <use xlink:href="#m58bbb9d40d" x="374.481834" y="63.393648" style="fill: #1e90ff; stroke: #000000"/>
     <use xlink:href="#m58bbb9d40d" x="275.699369" y="172.070324" style="fill: #1e90ff; stroke: #000000"/>
     <use xlink:href="#m58bbb9d40d" x="232.870495" y="162.327989" style="fill: #1e90ff; stroke: #000000"/>
     <use xlink:href="#m58bbb9d40d" x="358.125182" y="221.043757" style="fill: #1e90ff; stroke: #000000"/>
     <use xlink:href="#m58bbb9d40d" x="198.235741" y="282.477131" style="fill: #1e90ff; stroke: #000000"/>
     <use xlink:href="#m58bbb9d40d" x="260.870262" y="279.709372" style="fill: #1e90ff; stroke: #000000"/>
     <use xlink:href="#m58bbb9d40d" x="171.226084" y="160.172809" style="fill: #1e90ff; stroke: #000000"/>
     <use xlink:href="#m58bbb9d40d" x="224.711649" y="154.103476" style="fill: #1e90ff; stroke: #000000"/>
     <use xlink:href="#m58bbb9d40d" x="189.099689" y="139.041462" style="fill: #1e90ff; stroke: #000000"/>
     <use xlink:href="#m58bbb9d40d" x="205.182222" y="143.165241" style="fill: #1e90ff; stroke: #000000"/>
     <use xlink:href="#m58bbb9d40d" x="215.222356" y="143.344853" style="fill: #1e90ff; stroke: #000000"/>
     <use xlink:href="#m58bbb9d40d" x="213.95749" y="150.806781" style="fill: #1e90ff; stroke: #000000"/>
     <use xlink:href="#m58bbb9d40d" x="169.754891" y="141.578971" style="fill: #1e90ff; stroke: #000000"/>
     <use xlink:href="#m58bbb9d40d" x="206.230708" y="140.856043" style="fill: #1e90ff; stroke: #000000"/>
     <use xlink:href="#m58bbb9d40d" x="99.91602" y="108.467526" style="fill: #1e90ff; stroke: #000000"/>
     <use xlink:href="#m58bbb9d40d" x="60.011176" y="127.417153" style="fill: #1e90ff; stroke: #000000"/>
     <use xlink:href="#m58bbb9d40d" x="61.855237" y="110.356979" style="fill: #1e90ff; stroke: #000000"/>
     <use xlink:href="#m58bbb9d40d" x="180.552858" y="140.668737" style="fill: #1e90ff; stroke: #000000"/>
    </g>
   </g>
   <g id="PathCollection_2">
    <defs>
     <path id="m80c193d466" d="M 0 5.477226 
C 1.452577 5.477226 2.845856 4.900111 3.872983 3.872983 
C 4.900111 2.845856 5.477226 1.452577 5.477226 0 
C 5.477226 -1.452577 4.900111 -2.845856 3.872983 -3.872983 
C 2.845856 -4.900111 1.452577 -5.477226 0 -5.477226 
C -1.452577 -5.477226 -2.845856 -4.900111 -3.872983 -3.872983 
C -4.900111 -2.845856 -5.477226 -1.452577 -5.477226 0 
C -5.477226 1.452577 -4.900111 2.845856 -3.872983 3.872983 
C -2.845856 4.900111 -1.452577 5.477226 0 5.477226 
z
" style="stroke: #000000"/>
    </defs>
    <g clip-path="url(#p12f882fe82)">
     <use xlink:href="#m80c193d466" x="260.516491" y="141.129671" style="fill: #ff0000; stroke: #000000"/>
     <use xlink:href="#m80c193d466" x="272.087087" y="142.19114" style="fill: #ff0000; stroke: #000000"/>
     <use xlink:href="#m80c193d466" x="269.111936" y="137.825148" style="fill: #ff0000; stroke: #000000"/>
     <use xlink:href="#m80c193d466" x="260.501068" y="141.535252" style="fill: #ff0000; stroke: #000000"/>
     <use xlink:href="#m80c193d466" x="259.094136" y="139.138195" style="fill: #ff0000; stroke: #000000"/>
     <use xlink:href="#m80c193d466" x="277.601716" y="171.451589" style="fill: #ff0000; stroke: #000000"/>
     <use xlink:href="#m80c193d466" x="347.164812" y="183.251944" style="fill: #ff0000; stroke: #000000"/>
     <use xlink:href="#m80c193d466" x="357.710954" y="190.926682" style="fill: #ff0000; stroke: #000000"/>
     <use xlink:href="#m80c193d466" x="255.061416" y="256.303393" style="fill: #ff0000; stroke: #000000"/>
     <use xlink:href="#m80c193d466" x="320.999463" y="241.355602" style="fill: #ff0000; stroke: #000000"/>
     <use xlink:href="#m80c193d466" x="195.265578" y="157.796461" style="fill: #ff0000; stroke: #000000"/>
     <use xlink:href="#m80c193d466" x="233.681468" y="153.372487" style="fill: #ff0000; stroke: #000000"/>
     <use xlink:href="#m80c193d466" x="228.730667" y="139.289155" style="fill: #ff0000; stroke: #000000"/>
     <use xlink:href="#m80c193d466" x="209.624353" y="134.140372" style="fill: #ff0000; stroke: #000000"/>
     <use xlink:href="#m80c193d466" x="233.876006" y="139.430027" style="fill: #ff0000; stroke: #000000"/>
     <use xlink:href="#m80c193d466" x="225.478597" y="149.513399" style="fill: #ff0000; stroke: #000000"/>
     <use xlink:href="#m80c193d466" x="125.553211" y="136.264439" style="fill: #ff0000; stroke: #000000"/>
     <use xlink:href="#m80c193d466" x="181.49402" y="72.705194" style="fill: #ff0000; stroke: #000000"/>
     <use xlink:href="#m80c193d466" x="160.914731" y="100.014372" style="fill: #ff0000; stroke: #000000"/>
     <use xlink:href="#m80c193d466" x="112.36681" y="114.502009" style="fill: #ff0000; stroke: #000000"/>
     <use xlink:href="#m80c193d466" x="128.423881" y="94.54785" style="fill: #ff0000; stroke: #000000"/>
     <use xlink:href="#m80c193d466" x="153.541597" y="89.230618" style="fill: #ff0000; stroke: #000000"/>
    </g>
   </g>
   <g id="legend_1">
    <g id="patch_30">
     <path d="M 324.673125 296.5575 
L 445.2 296.5575 
Q 447.6 296.5575 447.6 294.1575 
L 447.6 260.13 
Q 447.6 257.73 445.2 257.73 
L 324.673125 257.73 
Q 322.273125 257.73 322.273125 260.13 
L 322.273125 294.1575 
Q 322.273125 296.5575 324.673125 296.5575 
z
" style="fill: #eceff4; opacity: 0.8; stroke: #cccccc; stroke-linejoin: miter"/>
    </g>
    <g id="PathCollection_3">
     <g>
      <use xlink:href="#m58bbb9d40d" x="339.073125" y="268.498125" style="fill: #1e90ff; stroke: #000000"/>
     </g>
    </g>
    <g id="text_25">
     <!-- Unified Model -->
     <g transform="translate(360.673125 271.648125) scale(0.12 -0.12)">
      <use xlink:href="#DejaVuSans-55"/>
      <use xlink:href="#DejaVuSans-6e" transform="translate(73.193359 0)"/>
      <use xlink:href="#DejaVuSans-69" transform="translate(136.572266 0)"/>
      <use xlink:href="#DejaVuSans-66" transform="translate(164.355469 0)"/>
      <use xlink:href="#DejaVuSans-69" transform="translate(199.560547 0)"/>
      <use xlink:href="#DejaVuSans-65" transform="translate(227.34375 0)"/>
      <use xlink:href="#DejaVuSans-64" transform="translate(288.867188 0)"/>
      <use xlink:href="#DejaVuSans-20" transform="translate(352.34375 0)"/>
      <use xlink:href="#DejaVuSans-4d" transform="translate(384.130859 0)"/>
      <use xlink:href="#DejaVuSans-6f" transform="translate(470.410156 0)"/>
      <use xlink:href="#DejaVuSans-64" transform="translate(531.591797 0)"/>
      <use xlink:href="#DejaVuSans-65" transform="translate(595.068359 0)"/>
      <use xlink:href="#DejaVuSans-6c" transform="translate(656.591797 0)"/>
     </g>
    </g>
    <g id="PathCollection_4">
     <g>
      <use xlink:href="#m80c193d466" x="339.073125" y="286.111875" style="fill: #ff0000; stroke: #000000"/>
     </g>
    </g>
    <g id="text_26">
     <!-- LNRT Model -->
     <g transform="translate(360.673125 289.261875) scale(0.12 -0.12)">
      <use xlink:href="#DejaVuSans-4c"/>
      <use xlink:href="#DejaVuSans-4e" transform="translate(55.712891 0)"/>
      <use xlink:href="#DejaVuSans-52" transform="translate(130.517578 0)"/>
      <use xlink:href="#DejaVuSans-54" transform="translate(192.75 0)"/>
      <use xlink:href="#DejaVuSans-20" transform="translate(253.833984 0)"/>
      <use xlink:href="#DejaVuSans-4d" transform="translate(285.621094 0)"/>
      <use xlink:href="#DejaVuSans-6f" transform="translate(371.900391 0)"/>
      <use xlink:href="#DejaVuSans-64" transform="translate(433.082031 0)"/>
      <use xlink:href="#DejaVuSans-65" transform="translate(496.558594 0)"/>
      <use xlink:href="#DejaVuSans-6c" transform="translate(558.082031 0)"/>
     </g>
    </g>
   </g>
  </g>
 </g>
 <defs>
  <clipPath id="p12f882fe82">
   <rect x="7.2" y="25.3575" width="446.4" height="277.2"/>
  </clipPath>
 </defs>
</svg>
